<?xml version="1.0" encoding="utf-8" standalone="no"?>
<!DOCTYPE svg PUBLIC "-//W3C//DTD SVG 1.1//EN"
  "http://www.w3.org/Graphics/SVG/1.1/DTD/svg11.dtd">
<!-- Created with matplotlib (http://matplotlib.org/) -->
<svg height="288pt" version="1.1" viewBox="0 0 432 288" width="432pt" xmlns="http://www.w3.org/2000/svg" xmlns:xlink="http://www.w3.org/1999/xlink">
 <defs>
  <style type="text/css">
*{stroke-linecap:butt;stroke-linejoin:round;}
  </style>
 </defs>
 <g id="figure_1">
  <g id="patch_1">
   <path d="
M0 288
L432 288
L432 0
L0 0
z
" style="fill:#ffffff;"/>
  </g>
  <g id="axes_1">
   <g id="patch_2">
    <path d="
M51.9651 243.744
L411.561 243.744
L411.561 57.9091
L51.9651 57.9091
z
" style="fill:#ffffff;"/>
   </g>
   <g id="line2d_1">
    <path clip-path="url(#p953632d85f)" d="
M51.9651 57.9091
L55.5974 58.6566
L59.2297 60.8872
L62.862 64.565
L66.4943 69.6307
L70.1265 76.0029
L73.7588 83.579
L77.3911 92.2372
L81.0234 101.838
L84.6557 112.227
L88.288 123.237
L91.9202 134.692
L95.5525 146.405
L99.1848 158.19
L102.817 169.857
L106.449 181.217
L110.082 192.088
L113.714 202.295
L117.346 211.674
L120.979 220.075
L124.611 227.36
L128.243 233.415
L131.875 238.14
L135.508 241.461
L139.14 243.323
L142.772 243.697
L146.404 242.577
L150.037 239.98
L153.669 235.949
L157.301 230.548
L160.934 223.865
L164.566 216.006
L168.198 207.098
L171.83 197.285
L175.463 186.725
L179.095 175.587
L182.727 164.05
L186.36 152.301
L189.992 140.528
L193.624 128.92
L197.256 117.666
L200.889 106.944
L204.521 96.9291
L208.153 87.7812
L211.786 79.6476
L215.418 72.6594
L219.05 66.9289
L222.682 62.5484
L226.315 59.5882
L229.947 58.0962
L233.579 58.0962
L237.212 59.5882
L240.844 62.5484
L244.476 66.9289
L248.108 72.6594
L251.741 79.6476
L255.373 87.7812
L259.005 96.9291
L262.638 106.944
L266.27 117.666
L269.902 128.92
L273.534 140.528
L277.167 152.301
L280.799 164.05
L284.431 175.587
L288.064 186.725
L291.696 197.285
L295.328 207.098
L298.96 216.006
L302.593 223.865
L306.225 230.548
L309.857 235.949
L313.49 239.98
L317.122 242.577
L320.754 243.697
L324.386 243.323
L328.019 241.461
L331.651 238.14
L335.283 233.415
L338.916 227.36
L342.548 220.075
L346.18 211.674
L349.812 202.295
L353.445 192.088
L357.077 181.217
L360.709 169.857
L364.341 158.19
L367.974 146.405
L371.606 134.692
L375.238 123.237
L378.871 112.227
L382.503 101.838
L386.135 92.2372
L389.767 83.579
L393.4 76.0029
L397.032 69.6307
L400.664 64.565
L404.297 60.8872
L407.929 58.6566
L411.561 57.9091" style="fill:none;stroke:#0000ff;stroke-linecap:square;"/>
   </g>
   <g id="matplotlib.axis_1">
    <g id="xtick_1">
     <g id="line2d_2">
      <defs>
       <path d="
M0 0
L0 -4" id="m93b0483c22" style="stroke:#000000;stroke-width:0.5;"/>
      </defs>
      <g>
       <use style="stroke:#000000;stroke-width:0.5;" x="51.965126041" xlink:href="#m93b0483c22" y="243.743910628"/>
      </g>
     </g>
     <g id="line2d_3">
      <defs>
       <path d="
M0 0
L0 4" id="m741efc42ff" style="stroke:#000000;stroke-width:0.5;"/>
      </defs>
      <g>
       <use style="stroke:#000000;stroke-width:0.5;" x="51.965126041" xlink:href="#m741efc42ff" y="57.9090983519"/>
      </g>
     </g>
     <g id="text_1">
      <!-- $0.0$ -->
      <defs>
       <path d="
M42 31.6406
C42 37.75 41.9062 48.125 37.7031 56.1094
C34 63.1094 28.0938 65.5938 22.9062 65.5938
C18.0938 65.5938 12 63.4062 8.20312 56.2031
C4.20312 48.7188 3.79688 39.4375 3.79688 31.6406
C3.79688 25.9531 3.90625 17.2812 7 9.67188
C11.2969 -0.609375 19 -2 22.9062 -2
C27.5 -2 34.5 -0.109375 38.5938 9.375
C41.5938 16.2812 42 24.3594 42 31.6406
M22.9062 -0.40625
C16.5 -0.40625 12.7031 5.07812 11.2969 12.6875
C10.2031 18.5625 10.2031 27.1562 10.2031 32.75
C10.2031 40.4375 10.2031 46.8281 11.5 52.9219
C13.4062 61.3906 19 64 22.9062 64
C27 64 32.2969 61.2969 34.2031 53.125
C35.5 47.4375 35.5938 40.7344 35.5938 32.75
C35.5938 26.25 35.5938 18.2656 34.4062 12.375
C32.2969 1.48438 26.4062 -0.40625 22.9062 -0.40625" id="CMR17-48"/>
       <path d="
M18.4062 4.79688
C18.4062 7.6875 16 9.67188 13.5938 9.67188
C10.7031 9.67188 8.70312 7.28125 8.70312 4.89062
C8.70312 2 11.0938 0 13.5 0
C16.4062 0 18.4062 2.39062 18.4062 4.79688" id="CMMI12-58"/>
      </defs>
      <g transform="translate(44.4863051642 256.261894945)scale(0.12 -0.12)">
       <use transform="scale(0.996264009963)" xlink:href="#CMR17-48"/>
       <use transform="translate(45.6904771171 0.0)scale(0.996264009963)" xlink:href="#CMMI12-58"/>
       <use transform="translate(72.7876542069 0.0)scale(0.996264009963)" xlink:href="#CMR17-48"/>
      </g>
     </g>
    </g>
    <g id="xtick_2">
     <g id="line2d_4">
      <g>
       <use style="stroke:#000000;stroke-width:0.5;" x="123.884336657" xlink:href="#m93b0483c22" y="243.743910628"/>
      </g>
     </g>
     <g id="line2d_5">
      <g>
       <use style="stroke:#000000;stroke-width:0.5;" x="123.884336657" xlink:href="#m741efc42ff" y="57.9090983519"/>
      </g>
     </g>
     <g id="text_2">
      <!-- $0.2$ -->
      <defs>
       <path d="
M41.7031 15.4531
L39.9062 15.4531
C38.9062 8.375 38.0938 7.17188 37.7031 6.5625
C37.2031 5.76562 30 5.76562 28.5938 5.76562
L9.40625 5.76562
C13 9.67188 20 16.75 28.5 24.9531
C34.5938 30.7344 41.7031 37.5312 41.7031 47.4219
C41.7031 59.2188 32.2969 66 21.7969 66
C10.7969 66 4.09375 56.3125 4.09375 47.3438
C4.09375 43.4375 7 42.9375 8.20312 42.9375
C9.20312 42.9375 12.2031 43.5469 12.2031 47.0312
C12.2031 50.1094 9.59375 51 8.20312 51
C7.59375 51 7 50.9062 6.59375 50.7031
C8.5 59.2188 14.2969 63.4062 20.4062 63.4062
C29.0938 63.4062 34.7969 56.5156 34.7969 47.4219
C34.7969 38.7344 29.7031 31.25 24 24.75
L4.09375 2.28125
L4.09375 0
L39.2969 0
z
" id="CMR17-50"/>
      </defs>
      <g transform="translate(116.405515781 256.261894945)scale(0.12 -0.12)">
       <use transform="scale(0.996264009963)" xlink:href="#CMR17-48"/>
       <use transform="translate(45.6904771171 0.0)scale(0.996264009963)" xlink:href="#CMMI12-58"/>
       <use transform="translate(72.7876542069 0.0)scale(0.996264009963)" xlink:href="#CMR17-50"/>
      </g>
     </g>
    </g>
    <g id="xtick_3">
     <g id="line2d_6">
      <g>
       <use style="stroke:#000000;stroke-width:0.5;" x="195.803547274" xlink:href="#m93b0483c22" y="243.743910628"/>
      </g>
     </g>
     <g id="line2d_7">
      <g>
       <use style="stroke:#000000;stroke-width:0.5;" x="195.803547274" xlink:href="#m741efc42ff" y="57.9090983519"/>
      </g>
     </g>
     <g id="text_3">
      <!-- $0.4$ -->
      <defs>
       <path d="
M33.5938 64.3281
C33.5938 66.4062 33.5 66.5 31.7031 66.5
L2 19.5938
L2 17
L27.7969 17
L27.7969 7.14062
C27.7969 3.5 27.5938 2.5 20.5938 2.5
L18.7031 2.5
L18.7031 0
C21.9062 0 27.2969 0 30.7031 0
C34.0938 0 39.5 0 42.7031 0
L42.7031 2.5
L40.7969 2.5
C33.7969 2.5 33.5938 3.5 33.5938 7.14062
L33.5938 17
L43.7969 17
L43.7969 19.5938
L33.5938 19.5938
z

M28.0938 57.7656
L28.0938 19.5938
L4 19.5938
z
" id="CMR17-52"/>
      </defs>
      <g transform="translate(188.324726397 256.261894945)scale(0.12 -0.12)">
       <use transform="scale(0.996264009963)" xlink:href="#CMR17-48"/>
       <use transform="translate(45.6904771171 0.0)scale(0.996264009963)" xlink:href="#CMMI12-58"/>
       <use transform="translate(72.7876542069 0.0)scale(0.996264009963)" xlink:href="#CMR17-52"/>
      </g>
     </g>
    </g>
    <g id="xtick_4">
     <g id="line2d_8">
      <g>
       <use style="stroke:#000000;stroke-width:0.5;" x="267.72275789" xlink:href="#m93b0483c22" y="243.743910628"/>
      </g>
     </g>
     <g id="line2d_9">
      <g>
       <use style="stroke:#000000;stroke-width:0.5;" x="267.72275789" xlink:href="#m741efc42ff" y="57.9090983519"/>
      </g>
     </g>
     <g id="text_4">
      <!-- $0.6$ -->
      <defs>
       <path d="
M10.5938 34
C10.5938 57.6562 21.7969 63 28.2969 63
C30.4062 63 35.5 62.6406 37.5 59
C35.9062 59 32.9062 59 32.9062 55.5156
C32.9062 52.8281 35.0938 51.9219 36.5 51.9219
C37.4062 51.9219 40.0938 52.3125 40.0938 55.625
C40.0938 61.7812 35.0938 65.2969 28.2031 65.2969
C16.2969 65.2969 3.79688 52.9688 3.79688 31
C3.79688 3.95312 15.0938 -2 23.0938 -2
C32.7969 -2 42 6.67188 42 20.0469
C42 32.5156 33.9062 41.5938 23.7031 41.5938
C17.5938 41.5938 13.0938 37.6094 10.5938 30.625
z

M23.0938 0.390625
C10.7969 0.390625 10.7969 18.75 10.7969 22.4375
C10.7969 29.625 14.2031 40 23.5 40
C25.2031 40 30.0938 40 33.4062 33.125
C35.2031 29.2188 35.2031 25.1406 35.2031 20.1406
C35.2031 14.75 35.2031 10.7812 33.0938 6.78125
C30.9062 2.67188 27.7031 0.390625 23.0938 0.390625" id="CMR17-54"/>
      </defs>
      <g transform="translate(260.243937014 256.261894945)scale(0.12 -0.12)">
       <use transform="scale(0.996264009963)" xlink:href="#CMR17-48"/>
       <use transform="translate(45.6904771171 0.0)scale(0.996264009963)" xlink:href="#CMMI12-58"/>
       <use transform="translate(72.7876542069 0.0)scale(0.996264009963)" xlink:href="#CMR17-54"/>
      </g>
     </g>
    </g>
    <g id="xtick_5">
     <g id="line2d_10">
      <g>
       <use style="stroke:#000000;stroke-width:0.5;" x="339.641968507" xlink:href="#m93b0483c22" y="243.743910628"/>
      </g>
     </g>
     <g id="line2d_11">
      <g>
       <use style="stroke:#000000;stroke-width:0.5;" x="339.641968507" xlink:href="#m741efc42ff" y="57.9090983519"/>
      </g>
     </g>
     <g id="text_5">
      <!-- $0.8$ -->
      <defs>
       <path d="
M27.2031 35.375
C33.5 38.5625 39.9062 43.3281 39.9062 50.9844
C39.9062 60.0312 31.0938 65.2969 23 65.2969
C13.9062 65.2969 5.90625 58.7344 5.90625 49.6875
C5.90625 47.2031 6.5 42.9219 10.4062 39.1406
C11.4062 38.1562 15.5938 35.1719 18.2969 33.2812
C13.7969 30.9844 3.29688 25.5312 3.29688 14.5938
C3.29688 4.35938 13.0938 -2 22.7969 -2
C33.5 -2 42.5 5.65625 42.5 15.7969
C42.5 24.8438 36.4062 29.0312 32.4062 31.7031
z

M14.0938 44.125
C13.2969 44.625 9.29688 47.7031 9.29688 52.375
C9.29688 58.4375 15.5938 63 22.7969 63
C30.7031 63 36.5 57.4531 36.5 50.9844
C36.5 41.7344 26.0938 36.4688 25.5938 36.4688
C25.5 36.4688 25.4062 36.4688 24.5938 37.0781
z

M32.5 23.7344
C34 22.6406 38.7969 19.375 38.7969 13.2969
C38.7969 5.95312 31.4062 0.390625 23 0.390625
C13.9062 0.390625 7 6.84375 7 14.6875
C7 22.5469 13.0938 29.0938 20 32.1875
z
" id="CMR17-56"/>
      </defs>
      <g transform="translate(332.16314763 256.261894945)scale(0.12 -0.12)">
       <use transform="scale(0.996264009963)" xlink:href="#CMR17-48"/>
       <use transform="translate(45.6904771171 0.0)scale(0.996264009963)" xlink:href="#CMMI12-58"/>
       <use transform="translate(72.7876542069 0.0)scale(0.996264009963)" xlink:href="#CMR17-56"/>
      </g>
     </g>
    </g>
    <g id="xtick_6">
     <g id="line2d_12">
      <g>
       <use style="stroke:#000000;stroke-width:0.5;" x="411.561179123" xlink:href="#m93b0483c22" y="243.743910628"/>
      </g>
     </g>
     <g id="line2d_13">
      <g>
       <use style="stroke:#000000;stroke-width:0.5;" x="411.561179123" xlink:href="#m741efc42ff" y="57.9090983519"/>
      </g>
     </g>
     <g id="text_6">
      <!-- $1.0$ -->
      <defs>
       <path d="
M26.5938 63.3125
C26.5938 65.4062 26.5 65.5 25.0938 65.5
C21.2031 61.1875 15.2969 59.7969 9.70312 59.7969
C9.40625 59.7969 8.90625 59.7969 8.79688 59.6094
C8.70312 59.3906 8.70312 59.1719 8.70312 57
C11.7969 57 17 57.5938 21 59.9844
L21 7.20312
C21 3.6875 20.7969 2.5 12.2031 2.5
L9.20312 2.5
L9.20312 0
C14 0 19 0 23.7969 0
C28.5938 0 33.5938 0 38.4062 0
L38.4062 2.5
L35.4062 2.5
C26.7969 2.5 26.5938 3.59375 26.5938 7.15625
z
" id="CMR17-49"/>
      </defs>
      <g transform="translate(404.082358246 256.261894945)scale(0.12 -0.12)">
       <use transform="scale(0.996264009963)" xlink:href="#CMR17-49"/>
       <use transform="translate(45.6904771171 0.0)scale(0.996264009963)" xlink:href="#CMMI12-58"/>
       <use transform="translate(72.7876542069 0.0)scale(0.996264009963)" xlink:href="#CMR17-48"/>
      </g>
     </g>
    </g>
    <g id="text_7">
     <!-- \textbf{time (s)} -->
     <defs>
      <path d="
M12.2031 -20.0625
C23.7031 -2.73438 28.5 11.0938 28.5 26.4062
C28.5 41.8438 23.7031 55.6562 12.2031 73
L2.20312 73
C12.7969 52.3594 16.2031 41.1406 16.2031 26.4062
C16.2031 11.7812 12.7969 0.375 2.20312 -20.0625
z
" id="Nimbus_Sans_L_Bold-41"/>
      <path d="
M20.2969 73
C8.79688 55.6562 4 41.8438 4 26.5156
C4 11.0938 8.79688 -2.73438 20.2969 -20.0625
L30.2969 -20.0625
C19.7031 0.5625 16.2969 11.7812 16.2969 26.5156
C16.2969 41.1406 19.7031 52.5625 30.2969 73
z
" id="Nimbus_Sans_L_Bold-40"/>
      <path d="
M6 54.0938
L6 0
L20 0
L20 32.4531
C20 39.0625 23.5938 43.0781 29.5938 43.0781
C34.2969 43.0781 37.2031 40.375 37.2031 36.0625
L37.2031 0
L51.2031 0
L51.2031 32.4531
C51.2031 39.0625 54.7969 43.0781 60.7969 43.0781
C65.5 43.0781 68.4062 40.375 68.4062 36.0625
L68.4062 0
L82.4062 0
L82.4062 38.2656
C82.4062 48.7812 76 55 65.2031 55
C58.4062 55 53.5938 52.5938 49.4062 46.9844
C46.7969 52.0938 41.4062 55 34.7031 55
C28.5 55 24.5 52.8906 19.9062 47.3906
L19.9062 54.0938
z
" id="Nimbus_Sans_L_Bold-109"/>
      <path d="
M50.5 36.75
C50.2969 48.1406 41.5 55.0312 27 55.0312
C13.2969 55.0312 4.79688 48.1562 4.79688 37.1094
C4.79688 33.5156 5.90625 30.4219 7.79688 28.3281
C9.70312 26.4531 11.4062 25.5469 16.5938 23.8594
L33.2969 18.6719
C36.7969 17.5781 38 16.4844 38 14.2969
C38 11 34.0938 9.01562 27.5938 9.01562
C24 9.01562 21.0938 9.71875 19.2969 10.9062
C17.7969 12 17.2031 13.0938 16.5938 15.9844
L2.90625 15.9844
C3.29688 4.1875 12 -2 28.4062 -2
C35.9062 -2 41.5938 -0.421875 45.5938 2.76562
C49.5938 5.95312 52 10.9375 52 16.2188
C52 23.2031 48.5 27.6719 41.4062 29.7656
L23.7031 34.8438
C19.7969 36.0469 18.7969 36.8438 18.7969 39.0312
C18.7969 42.0156 22 44 26.9062 44
C33.5938 44 36.9062 41.625 37 36.75
z
" id="Nimbus_Sans_L_Bold-115"/>
      <path d="
M30.0938 53.3125
L22.2969 53.3125
L22.2969 68
L8.29688 68
L8.29688 53.3125
L1.40625 53.3125
L1.40625 44
L8.29688 44
L8.29688 10.7344
C8.29688 2.20312 12.7969 -2 22 -2
C25.0938 -2 27.5938 -1.70312 30.0938 -0.90625
L30.0938 8.90625
C28.7031 8.71875 27.9062 8.60938 26.9062 8.60938
C23.2031 8.60938 22.2969 9.71875 22.2969 14.5156
L22.2969 44
L30.0938 44
z
" id="Nimbus_Sans_L_Bold-116"/>
      <path d="
M20.7031 54.0938
L6.70312 54.0938
L6.70312 0
L20.7031 0
z

M20.7031 73
L6.70312 73
L6.70312 60.4688
L20.7031 60.4688
z
" id="Nimbus_Sans_L_Bold-105"/>
      <path d="
M52.4062 23
C52.5 24.1875 52.5 24.6875 52.5 25.375
C52.5 30.7188 51.7031 35.6719 50.4062 39.4375
C46.7969 49.1406 38.0938 55 27.2031 55
C11.7031 55 2.20312 43.8438 2.20312 25.7969
C2.20312 8.54688 11.5938 -2 26.9062 -2
C39 -2 48.7969 4.92188 51.9062 15.5469
L38.0938 15.5469
C36.4062 11.2344 32.5 8.71875 27.4062 8.71875
C23.4062 8.71875 20.2031 10.4219 18.2031 13.4375
C16.9062 15.4531 16.4062 17.875 16.2031 23
z

M16.4062 32.3125
C17.2969 40.2969 20.7969 44.2812 27 44.2812
C30.5 44.2812 33.7031 42.625 35.7031 39.8906
C37 37.9531 37.5938 35.9062 37.9062 32.3125
z
" id="Nimbus_Sans_L_Bold-101"/>
     </defs>
     <g transform="translate(210.507191963 272.439856738)scale(0.12 -0.12)">
      <use transform="scale(0.996264009963)" xlink:href="#Nimbus_Sans_L_Bold-116"/>
      <use transform="translate(33.1752297293 0.0)scale(0.996264009963)" xlink:href="#Nimbus_Sans_L_Bold-105"/>
      <use transform="translate(60.8703993326 0.0)scale(0.996264009963)" xlink:href="#Nimbus_Sans_L_Bold-109"/>
      <use transform="translate(149.437306025 0.0)scale(0.996264009963)" xlink:href="#Nimbus_Sans_L_Bold-101"/>
      <use transform="translate(232.524152592 0.0)scale(0.996264009963)" xlink:href="#Nimbus_Sans_L_Bold-40"/>
      <use transform="translate(265.699382321 0.0)scale(0.996264009963)" xlink:href="#Nimbus_Sans_L_Bold-115"/>
      <use transform="translate(321.091059285 0.0)scale(0.996264009963)" xlink:href="#Nimbus_Sans_L_Bold-41"/>
     </g>
    </g>
   </g>
   <g id="matplotlib.axis_2">
    <g id="ytick_1">
     <g id="line2d_14">
      <defs>
       <path d="
M0 0
L4 0" id="m728421d6d4" style="stroke:#000000;stroke-width:0.5;"/>
      </defs>
      <g>
       <use style="stroke:#000000;stroke-width:0.5;" x="51.965126041" xlink:href="#m728421d6d4" y="243.743910628"/>
      </g>
     </g>
     <g id="line2d_15">
      <defs>
       <path d="
M0 0
L-4 0" id="mcb0005524f" style="stroke:#000000;stroke-width:0.5;"/>
      </defs>
      <g>
       <use style="stroke:#000000;stroke-width:0.5;" x="411.561179123" xlink:href="#mcb0005524f" y="243.743910628"/>
      </g>
     </g>
     <g id="text_8">
      <!-- $1.0$ -->
      <g transform="translate(33.0074842874 246.729715508)scale(0.12 -0.12)">
       <use transform="scale(0.996264009963)" xlink:href="#CMR17-49"/>
       <use transform="translate(45.6904771171 0.0)scale(0.996264009963)" xlink:href="#CMMI12-58"/>
       <use transform="translate(72.7876542069 0.0)scale(0.996264009963)" xlink:href="#CMR17-48"/>
      </g>
     </g>
    </g>
    <g id="ytick_2">
     <g id="line2d_16">
      <g>
       <use style="stroke:#000000;stroke-width:0.5;" x="51.965126041" xlink:href="#m728421d6d4" y="197.285207559"/>
      </g>
     </g>
     <g id="line2d_17">
      <g>
       <use style="stroke:#000000;stroke-width:0.5;" x="411.561179123" xlink:href="#mcb0005524f" y="197.285207559"/>
      </g>
     </g>
     <g id="text_9">
      <!-- $1.5$ -->
      <defs>
       <path d="
M11.4062 57.6875
C12.4062 57.2812 16.5 56 20.7031 56
C30 56 35.0938 61.0156 38 63.9219
C38 64.7344 38 65.25 37.4062 65.25
C37.2969 65.25 37.0938 65.25 36.2969 64.8281
C32.7969 63.3125 28.7031 62.0781 23.7031 62.0781
C20.7031 62.0781 16.2031 62.5 11.2969 64.7344
C10.2031 65.25 10 65.25 9.90625 65.25
C9.40625 65.25 9.29688 65.1406 9.29688 63.1562
L9.29688 34.2812
C9.29688 32.5 9.29688 32 10.2969 32
C10.7969 32 11 32.2031 11.5 32.9062
C14.7031 37.4844 19.0938 39.4062 24.0938 39.4062
C27.5938 39.4062 35.0938 37.2188 35.0938 20.1406
C35.0938 16.9531 35.0938 11.1719 32.0938 6.57812
C29.5938 2.48438 25.7031 0.390625 21.4062 0.390625
C14.7969 0.390625 8.09375 5 6.29688 12.7188
C6.70312 12.6094 7.5 12.4219 7.90625 12.4219
C9.20312 12.4219 11.7031 13.125 11.7031 16.2188
C11.7031 18.9062 9.79688 20 7.90625 20
C5.59375 20 4.09375 18.5938 4.09375 15.7969
C4.09375 7.09375 11 -2 21.5938 -2
C31.9062 -2 41.7031 6.875 41.7031 19.75
C41.7031 31.7188 33.9062 41 24.2031 41
C19.0938 41 14.7969 39.0938 11.4062 35.4531
z
" id="CMR17-53"/>
      </defs>
      <g transform="translate(33.0074842874 200.271012439)scale(0.12 -0.12)">
       <use transform="scale(0.996264009963)" xlink:href="#CMR17-49"/>
       <use transform="translate(45.6904771171 0.0)scale(0.996264009963)" xlink:href="#CMMI12-58"/>
       <use transform="translate(72.7876542069 0.0)scale(0.996264009963)" xlink:href="#CMR17-53"/>
      </g>
     </g>
    </g>
    <g id="ytick_3">
     <g id="line2d_18">
      <g>
       <use style="stroke:#000000;stroke-width:0.5;" x="51.965126041" xlink:href="#m728421d6d4" y="150.82650449"/>
      </g>
     </g>
     <g id="line2d_19">
      <g>
       <use style="stroke:#000000;stroke-width:0.5;" x="411.561179123" xlink:href="#mcb0005524f" y="150.82650449"/>
      </g>
     </g>
     <g id="text_10">
      <!-- $2.0$ -->
      <g transform="translate(33.0074842874 153.81230937)scale(0.12 -0.12)">
       <use transform="scale(0.996264009963)" xlink:href="#CMR17-50"/>
       <use transform="translate(45.6904771171 0.0)scale(0.996264009963)" xlink:href="#CMMI12-58"/>
       <use transform="translate(72.7876542069 0.0)scale(0.996264009963)" xlink:href="#CMR17-48"/>
      </g>
     </g>
    </g>
    <g id="ytick_4">
     <g id="line2d_20">
      <g>
       <use style="stroke:#000000;stroke-width:0.5;" x="51.965126041" xlink:href="#m728421d6d4" y="104.367801421"/>
      </g>
     </g>
     <g id="line2d_21">
      <g>
       <use style="stroke:#000000;stroke-width:0.5;" x="411.561179123" xlink:href="#mcb0005524f" y="104.367801421"/>
      </g>
     </g>
     <g id="text_11">
      <!-- $2.5$ -->
      <g transform="translate(33.0074842874 107.353606301)scale(0.12 -0.12)">
       <use transform="scale(0.996264009963)" xlink:href="#CMR17-50"/>
       <use transform="translate(45.6904771171 0.0)scale(0.996264009963)" xlink:href="#CMMI12-58"/>
       <use transform="translate(72.7876542069 0.0)scale(0.996264009963)" xlink:href="#CMR17-53"/>
      </g>
     </g>
    </g>
    <g id="ytick_5">
     <g id="line2d_22">
      <g>
       <use style="stroke:#000000;stroke-width:0.5;" x="51.965126041" xlink:href="#m728421d6d4" y="57.9090983519"/>
      </g>
     </g>
     <g id="line2d_23">
      <g>
       <use style="stroke:#000000;stroke-width:0.5;" x="411.561179123" xlink:href="#mcb0005524f" y="57.9090983519"/>
      </g>
     </g>
     <g id="text_12">
      <!-- $3.0$ -->
      <defs>
       <path d="
M22.0938 33.7031
C31 33.7031 34.9062 25.9688 34.9062 17.0312
C34.9062 5 28.5 0.390625 22.7031 0.390625
C17.4062 0.390625 8.79688 3.03125 6.09375 10.8281
C6.59375 10.625 7.09375 10.625 7.59375 10.625
C10 10.625 11.7969 12.2188 11.7969 14.8125
C11.7969 17.7031 9.59375 19 7.59375 19
C5.90625 19 3.29688 18.2031 3.29688 14.4688
C3.29688 5.23438 12.2969 -2 22.9062 -2
C34 -2 42.5 6.71875 42.5 16.9531
C42.5 26.6719 34.5 33.6875 25 34.7969
C32.5938 36.375 39.9062 43.0625 39.9062 52.0156
C39.9062 59.6875 32 65.2969 23 65.2969
C13.9062 65.2969 5.90625 59.8281 5.90625 52.0156
C5.90625 48.5938 8.5 48 9.79688 48
C11.9062 48 13.7031 49.2969 13.7031 51.8906
C13.7031 54.4688 11.9062 55.7656 9.79688 55.7656
C9.40625 55.7656 8.90625 55.7656 8.5 55.5625
C11.4062 61.8594 19.2969 63 22.7969 63
C26.2969 63 32.9062 61.3281 32.9062 51.875
C32.9062 49.1094 32.5 44.1875 29.0938 39.8438
C26.0938 36 22.7031 36 19.4062 35.5938
C18.9062 35.5938 16.5938 35.5938 16.2031 35.5938
C15.5 35.4844 15.0938 35.3906 15.0938 34.5938
C15.0938 33.8125 15.2031 33.7031 17.2031 33.7031
z
" id="CMR17-51"/>
      </defs>
      <g transform="translate(33.0074842874 60.8949032315)scale(0.12 -0.12)">
       <use transform="scale(0.996264009963)" xlink:href="#CMR17-51"/>
       <use transform="translate(45.6904771171 0.0)scale(0.996264009963)" xlink:href="#CMMI12-58"/>
       <use transform="translate(72.7876542069 0.0)scale(0.996264009963)" xlink:href="#CMR17-48"/>
      </g>
     </g>
    </g>
    <g id="text_13">
     <!-- \textit{Velocity}($^{\circ}$/sec) -->
     <defs>
      <path d="
M55.0938 34.9375
L55.2031 36.4375
C55.2969 37.9219 55.4062 39.0312 55.4062 39.3281
C55.4062 42.625 53.5938 46.6094 51 49.2969
C47.9062 52.4844 43.7969 54 38.0938 54
C29.0938 54 21 50.2031 15.7031 43.3438
C11 37.2656 7.59375 26.3906 7.59375 17.2188
C7.59375 12.5469 9.20312 7.65625 12 4.17188
C15.4062 -0.125 19.9062 -2 26.2969 -2
C34.5 -2 41.4062 0.875 46 6.28125
C48.5938 9.26562 50.2031 12.6562 51.7969 18.2344
L43.4062 18.2344
C40.4062 10.0781 34.9062 5.70312 27.7031 5.70312
C20.7969 5.70312 16.4062 10.5781 16.4062 18.3281
C16.4062 24.7031 18.5 32.2656 21.7969 37.4219
C25.5 43.2969 30.5 46.2812 36.5938 46.2812
C42.9062 46.2812 46.7969 42.8125 46.7969 37.125
C46.7969 36.5312 46.7969 35.8438 46.7031 34.9375
z
" id="Nimbus_Sans_L_Regular_Italic-99"/>
      <path d="
M23.5938 73
C13.5938 59.875 7.29688 41.6406 7.29688 25.9062
C7.29688 10.0938 13.5938 -8.14062 23.5938 -21.2656
L29.0938 -21.2656
C20.2969 -6.9375 15.4062 9.89062 15.4062 25.9062
C15.4062 41.8438 20.2969 58.7656 29.0938 73
z
" id="Nimbus_Sans_L_Regular-40"/>
      <path d="
M30.7031 73
L22.2969 73
L6.79688 0
L15.2031 0
z
" id="Nimbus_Sans_L_Regular_Italic-108"/>
      <path d="
M22.9062 73
L-0.796875 -2
L4.70312 -2
L28.4062 73
z
" id="Nimbus_Sans_L_Regular-47"/>
      <path d="
M26.0938 52.4844
L17.7031 52.4844
L6.59375 0.171875
L15 0.171875
z

M30.5 73
L22.0938 73
L19.9062 62.6719
L28.2969 62.6719
z
" id="Nimbus_Sans_L_Regular_Italic-105"/>
      <path d="
M36.5938 52.7031
L27.7031 52.7031
L30.7969 67
L22.4062 67
L19.2969 52.7031
L12.2031 52.7031
L10.7969 46
L17.9062 46
L10 9
C9.79688 8 9.70312 6.89062 9.70312 5.89062
C9.70312 1 13.0938 -2 18.5938 -2
C20.5938 -2 23.7031 -1.70312 25.0938 -1.3125
L26.7031 6
C23.5938 5.3125 23.0938 5.20312 21.9062 5.20312
C19.7031 5.20312 18.2969 6.3125 18.2969 7.90625
C18.2969 8.20312 18.4062 8.71875 18.5 9.29688
L26.2969 46
L35.2031 46
z
" id="Nimbus_Sans_L_Regular_Italic-116"/>
      <path d="
M9.29688 -21.2656
C19.2969 -8.14062 25.5938 10.0938 25.5938 25.8125
C25.5938 41.6406 19.2969 59.875 9.29688 73
L3.79688 73
C12.5938 58.6719 17.5 41.8438 17.5 25.8125
C17.5 9.89062 12.5938 -7.04688 3.79688 -21.2656
z
" id="Nimbus_Sans_L_Regular-41"/>
      <path d="
M38.4062 54
C29.0938 54 20.9062 49.7969 15.7969 42.4375
C11.2969 36.0625 8 25.0938 8 16.625
C8 5.5625 15.7031 -2 26.9062 -2
C36.5 -2 44.0938 1.89062 49.7031 9.54688
C54.2969 15.8281 57.5938 26.6875 57.5938 35.3594
C57.5938 40.6562 55.5938 45.7188 52.0938 49.1094
C48.7031 52.4062 44.2031 54 38.4062 54
M37.0938 46.2812
C44.5 46.2812 48.7969 41.5 48.7969 33.4531
C48.7969 27.5938 47.0938 21.125 44.4062 16.1406
C40.5938 9.28125 35.2031 5.70312 28.2969 5.70312
C21.2031 5.70312 16.7969 10.6875 16.7969 18.6406
C16.7969 24.2969 18.5 30.8594 21.2031 35.8438
C24.9062 42.6094 30.5 46.2812 37.0938 46.2812" id="Nimbus_Sans_L_Regular_Italic-111"/>
      <path d="
M56.2969 23.7812
L56.5938 25.4688
C57.5 30.2188 58 34.375 58 37.0469
C58 46.5625 49.7031 54 38.9062 54
C30.2031 54 21.7969 49.9062 16.7969 43.2344
C12.0938 36.9531 8.40625 25.5938 8.40625 17.5156
C8.40625 12.1406 10.7031 6.65625 14.5938 2.96875
C18.0938 -0.421875 22.5 -2 28.2031 -2
C40.2031 -2 50.5 5.42188 53.5938 16.25
L45.2031 16.25
C41.5938 9.32812 36.2969 5.70312 29.5938 5.70312
C21.7031 5.70312 17.2031 10.625 17.2031 19.1562
C17.2031 21.2812 17.2969 22.2812 17.7031 23.7812
z

M19.5 31
C22.0938 40.0156 29.5 46.2812 37.5938 46.2812
C44.7031 46.2812 49.2031 41.5781 49.2031 34.2188
C49.2031 33.25 49.0938 32.5625 48.9062 31
z
" id="Nimbus_Sans_L_Regular_Italic-101"/>
      <path d="
M39.2031 0
L80 73
L70.0938 73
L36.5 11.2188
L28.2031 73
L18.5 73
L29.2031 0
z
" id="Nimbus_Sans_L_Regular_Italic-86"/>
      <path d="
M44.4062 25
C44.4062 35.5781 35.5 44.1875 25 44.1875
C14.2031 44.1875 5.5 35.375 5.5 25
C5.5 14.5312 14.2031 5.8125 25 5.8125
C35.5 5.8125 44.4062 14.4219 44.4062 25
M25 9.8125
C16.2969 9.8125 9.5 16.7188 9.5 25
C9.5 33.2812 16.4062 40.1875 25 40.1875
C33.2969 40.1875 40.4062 33.4688 40.4062 25
C40.4062 16.5312 33.2969 9.8125 25 9.8125" id="CMSY10-14"/>
      <path d="
M50.0938 53
L26.7969 12.125
L22.2031 53
L13.2031 53
L20 -0.015625
L14.7969 -8.15625
C12.0938 -12.375 10.5 -13.375 6.79688 -13.375
C5.79688 -13.375 5.09375 -13.2812 2.40625 -12.9844
L0.796875 -20.5
C2.59375 -21.2969 3.79688 -21.5 5.70312 -21.5
C12.7969 -21.5 17.9062 -18.0781 22.2031 -10.6406
L59 53
z
" id="Nimbus_Sans_L_Regular_Italic-121"/>
      <path d="
M47.0938 34.9375
C46.7031 40.0312 45.5938 43.3281 43.5938 46.2188
C40 51.1094 33.7031 54 26.4062 54
C12.2969 54 3.09375 42.8438 3.09375 25.5
C3.09375 8.65625 12.0938 -2 26.2969 -2
C38.7969 -2 46.7031 5.46875 47.7031 18.2344
L39.2969 18.2344
C37.9062 9.875 33.5938 5.70312 26.5 5.70312
C17.2969 5.70312 11.7969 13.1719 11.7969 25.5
C11.7969 38.5312 17.2031 46.2812 26.2969 46.2812
C33.2969 46.2812 37.7031 42.2031 38.7031 34.9375
z
" id="Nimbus_Sans_L_Regular-99"/>
      <path d="
M51.2969 24
C51.2969 31.875 50.7031 36.5938 49.2031 40.4219
C45.7969 48.875 37.7969 54 28 54
C13.4062 54 4 42.8438 4 25.7031
C4 8.54688 13.0938 -2 27.7969 -2
C39.7969 -2 48.0938 4.875 50.2031 16.375
L41.7969 16.375
C39.5 9.35938 34.7969 5.70312 28.0938 5.70312
C22.7969 5.70312 18.2969 8.14062 15.5 12.6094
C13.5 15.6562 12.7969 18.7188 12.7031 24
z

M12.9062 30.8125
C13.5938 40.1875 19.5 46.2812 27.9062 46.2812
C36.0938 46.2812 42.4062 39.7031 42.4062 31.4062
C42.4062 31.2031 42.4062 31.0156 42.2969 30.8125
z
" id="Nimbus_Sans_L_Regular-101"/>
      <path d="
M43.7969 37.9219
C43.7031 48.2031 36.9062 54 24.7969 54
C12.5938 54 4.70312 47.7188 4.70312 38.0625
C4.70312 29.8906 8.90625 26.0156 21.2969 23.0312
L29.0938 21.1406
C34.9062 19.7344 37.2031 17.6562 37.2031 13.875
C37.2031 9 32.2969 5.70312 25 5.70312
C20.5 5.70312 16.7031 7 14.5938 9.1875
C13.2969 10.6875 12.7031 12.1719 12.2031 15.8438
L3.40625 15.8438
C3.79688 3.76562 10.5938 -2 24.2969 -2
C37.5 -2 45.9062 4.45312 45.9062 14.5156
C45.9062 22.2812 41.5 26.5781 31.0938 29.0625
L23.0938 30.9531
C16.2969 32.5312 13.4062 34.7344 13.4062 38.4062
C13.4062 43.1875 17.7031 46.2812 24.5 46.2812
C31.2031 46.2812 34.7969 43.3906 35 37.9219
z
" id="Nimbus_Sans_L_Regular-115"/>
     </defs>
     <g transform="translate(24.6123030092 201.852746415)rotate(-90.0)scale(0.16 -0.16)">
      <use transform="scale(0.996264009963)" xlink:href="#Nimbus_Sans_L_Regular_Italic-86"/>
      <use transform="translate(58.480587932 0.0)scale(0.996264009963)" xlink:href="#Nimbus_Sans_L_Regular_Italic-101"/>
      <use transform="translate(113.872264895 0.0)scale(0.996264009963)" xlink:href="#Nimbus_Sans_L_Regular_Italic-108"/>
      <use transform="translate(135.989049244 0.0)scale(0.996264009963)" xlink:href="#Nimbus_Sans_L_Regular_Italic-111"/>
      <use transform="translate(191.380726207 0.0)scale(0.996264009963)" xlink:href="#Nimbus_Sans_L_Regular_Italic-99"/>
      <use transform="translate(241.193926706 0.0)scale(0.996264009963)" xlink:href="#Nimbus_Sans_L_Regular_Italic-105"/>
      <use transform="translate(263.310711054 0.0)scale(0.996264009963)" xlink:href="#Nimbus_Sans_L_Regular_Italic-116"/>
      <use transform="translate(291.005880657 0.0)scale(0.996264009963)" xlink:href="#Nimbus_Sans_L_Regular_Italic-121"/>
      <use transform="translate(350.781751659 0.0)scale(0.996264009963)" xlink:href="#Nimbus_Sans_L_Regular-40"/>
      <use transform="translate(383.956981388 36.1536389419)scale(0.697381766617)" xlink:href="#CMSY10-14"/>
      <use transform="translate(419.324323338 0.0)scale(0.996264009963)" xlink:href="#Nimbus_Sans_L_Regular-47"/>
      <use transform="translate(447.019492942 0.0)scale(0.996264009963)" xlink:href="#Nimbus_Sans_L_Regular-115"/>
      <use transform="translate(496.83269344 0.0)scale(0.996264009963)" xlink:href="#Nimbus_Sans_L_Regular-101"/>
      <use transform="translate(552.224370403 0.0)scale(0.996264009963)" xlink:href="#Nimbus_Sans_L_Regular-99"/>
      <use transform="translate(602.037570901 0.0)scale(0.996264009963)" xlink:href="#Nimbus_Sans_L_Regular-41"/>
     </g>
    </g>
   </g>
   <g id="patch_3">
    <path d="
M51.9651 57.9091
L411.561 57.9091" style="fill:none;stroke:#000000;"/>
   </g>
   <g id="patch_4">
    <path d="
M411.561 243.744
L411.561 57.9091" style="fill:none;stroke:#000000;"/>
   </g>
   <g id="patch_5">
    <path d="
M51.9651 243.744
L411.561 243.744" style="fill:none;stroke:#000000;"/>
   </g>
   <g id="patch_6">
    <path d="
M51.9651 243.744
L51.9651 57.9091" style="fill:none;stroke:#000000;"/>
   </g>
   <g id="text_14">
    <!-- \TeX\ is Number $\displaystyle\sum_{n=1}^\infty\frac{-e^{i\pi}}{2^n}$! -->
    <defs>
     <path d="
M17.9062 23.1094
C20.5938 23.1094 27.4062 23.1094 32.2031 24.9219
C39.7969 27.8594 40.5 33.7188 40.5 35.5312
C40.5 39.9688 36.7031 44 30.0938 44
C19.5938 44 4.5 34.5312 4.5 16.7656
C4.5 6.28125 10.5 -1 19.5938 -1
C33.2031 -1 41.7969 9.53125 41.7969 10.8125
C41.7969 11.4062 41.2031 11.9062 40.7969 11.9062
C40.5 11.9062 40.4062 11.8125 39.5 10.9219
C33.0938 2.48438 23.5938 1 19.7969 1
C14.0938 1 11.0938 5.46875 11.0938 12.8438
C11.0938 14.2344 11.0938 16.7344 12.5938 23.1094
z

M13.0938 25
C17.4062 40.5 26.9062 42.0156 30.0938 42.0156
C34.5 42.0156 37.5 39.4062 37.5 35.5781
C37.5 25 21.5 25 17.2969 25
z
" id="CMMI12-101"/>
     <path d="
M50.7969 27.0625
C45.4062 33.8594 44.2031 35.3594 41.0938 37.8594
C35.5 42.3438 29.9062 44.1406 24.7969 44.1406
C13.0938 44.1406 5.5 33.1562 5.5 21.4688
C5.5 9.98438 12.9062 -1.09375 24.4062 -1.09375
C35.9062 -1.09375 44.2031 7.98438 49.0938 15.9688
C54.5 9.1875 55.7031 7.6875 58.7969 5.1875
C64.4062 0.703125 70 -1.09375 75.0938 -1.09375
C86.7969 -1.09375 94.4062 9.89062 94.4062 21.5625
C94.4062 33.0469 87 44.1406 75.5 44.1406
C64 44.1406 55.7031 35.0469 50.7969 27.0625
M53.4062 23.6562
C57.5 30.8594 64.9062 40.9375 76.2031 40.9375
C86.7969 40.9375 92.2031 30.5469 92.2031 21.5625
C92.2031 11.7656 85.5 3.6875 76.7031 3.6875
C70.9062 3.6875 66.4062 7.89062 64.2969 9.96875
C61.7969 12.6719 59.5 15.7656 53.4062 23.6562
M46.5 19.375
C42.4062 12.1875 35 2.09375 23.7031 2.09375
C13.0938 2.09375 7.70312 12.4844 7.70312 21.4688
C7.70312 31.25 14.4062 39.3438 23.2031 39.3438
C29 39.3438 33.5 35.1406 35.5938 33.0469
C38.0938 30.3594 40.4062 27.25 46.5 19.375" id="CMSY10-49"/>
     <path d="
M64.2969 31.5156
C65.7969 31.5156 67.2969 31.5156 67.2969 33.2031
C67.2969 35 65.5938 35 63.9062 35
L8 35
C6.29688 35 4.59375 35 4.59375 33.2031
C4.59375 31.5156 6.09375 31.5156 7.59375 31.5156
z

M63.9062 14
C65.5938 14 67.2969 14 67.2969 15.7969
C67.2969 17.4844 65.7969 17.4844 64.2969 17.4844
L7.59375 17.4844
C6.09375 17.4844 4.59375 17.4844 4.59375 15.7969
C4.59375 14 6.29688 14 8 14
z
" id="CMR17-61"/>
     <path d="
M28.2969 14.2656
C28.2969 14.7656 27.9062 15.1719 27.2969 15.1719
C26.4062 15.1719 26.2969 14.875 25.7969 13.1719
C23.2031 4.09375 19.0938 1 15.7969 1
C14.5938 1 13.2031 1.29688 13.2031 4.29688
C13.2031 6.98438 14.4062 9.98438 15.5 12.9688
L22.5 31.5312
C22.7969 32.3281 23.5 34.125 23.5 36.0156
C23.5 40.2188 20.5 44 15.5938 44
C6.40625 44 2.70312 29.5312 2.70312 28.7344
C2.70312 28.3438 3.09375 27.8438 3.79688 27.8438
C4.70312 27.8438 4.79688 28.2344 5.20312 29.625
C7.59375 37.9375 11.4062 41.9062 15.2969 41.9062
C16.2031 41.9062 17.9062 41.9062 17.9062 38.7188
C17.9062 36.125 16.5938 32.8281 15.7969 30.6406
L8.79688 12.0781
C8.20312 10.4844 7.59375 8.875 7.59375 7.07812
C7.59375 2.59375 10.7031 -1 15.5 -1
C24.7031 -1 28.2969 13.5781 28.2969 14.2656
M27.5 62.7031
C27.5 64.2031 26.2969 66 24.0938 66
C21.7969 66 19.2031 63.7969 19.2031 61.2031
C19.2031 58.7188 21.2969 57.9219 22.5 57.9219
C25.2031 57.9219 27.5 60.5156 27.5 62.7031" id="CMMI12-105"/>
     <path d="
M25.9062 37.625
L37.2031 37.625
C34.5 26.4375 32.7969 19.1562 32.7969 11.1875
C32.7969 9.78125 32.7969 -1 36.9062 -1
C39 -1 40.7969 0.890625 40.7969 2.60938
C40.7969 3.09375 40.7969 3.29688 40.0938 4.79688
C37.4062 11.6719 37.4062 20.25 37.4062 20.9531
C37.4062 21.5625 37.4062 28.6406 39.5 37.625
L50.7031 37.625
C52 37.625 55.2969 37.625 55.2969 40.8125
C55.2969 43 53.4062 43 51.5938 43
L18.7031 43
C16.4062 43 13 43 8.40625 38.125
C5.79688 35.2188 2.59375 29.9375 2.59375 29.3438
C2.59375 28.75 3.09375 28.5469 3.70312 28.5469
C4.40625 28.5469 4.5 28.8438 5 29.4375
C10.2031 37.625 15.4062 37.625 17.9062 37.625
L23.5938 37.625
C21.4062 30.1406 18.9062 21.4531 10.7031 4
C9.90625 2.40625 9.90625 2.1875 9.90625 1.59375
C9.90625 -0.5 11.7031 -1 12.5938 -1
C15.5 -1 16.2969 1.59375 17.5 5.78125
C19.0938 10.875 19.0938 11.0781 20.0938 15.0625
z
" id="CMMI12-25"/>
     <path d="
M5.40625 73
L5.40625 -0.03125
L12.9062 -0.03125
L12.9062 7
C16.9062 0.890625 22.2031 -2 29.5 -2
C43.2969 -2 52.2969 9.25 52.2969 26.5938
C52.2969 43.5312 43.7031 54 29.9062 54
C22.7031 54 17.5938 51.2812 13.7031 45.3906
L13.7031 73
z

M28.2969 46.1875
C37.5938 46.1875 43.5938 38.125 43.5938 25.7031
C43.5938 13.8594 37.4062 5.8125 28.2969 5.8125
C19.5 5.8125 13.7031 13.7656 13.7031 26
C13.7031 38.2344 19.5 46.1875 28.2969 46.1875" id="Nimbus_Sans_L_Regular-98"/>
     <path d="
M20.5938 29.2344
C20.7969 29.8438 23.2969 34.8281 27 38.0156
C29.5938 40.4062 33 42.0156 36.9062 42.0156
C40.9062 42.0156 42.2969 39.0156 42.2969 35.0312
C42.2969 29.3438 38.2031 17.9688 36.2031 12.5781
C35.2969 10.1719 34.7969 8.875 34.7969 7.07812
C34.7969 2.59375 37.9062 -1 42.7031 -1
C52 -1 55.5 13.6719 55.5 14.2656
C55.5 14.7656 55.0938 15.1719 54.5 15.1719
C53.5938 15.1719 53.5 14.875 53 13.1719
C50.7031 4.98438 46.9062 1 43 1
C42 1 40.4062 1 40.4062 4.20312
C40.4062 6.70312 41.5 9.70312 42.0938 11.0938
C44.0938 16.6094 48.2969 27.8125 48.2969 33.5156
C48.2969 39.5 44.7969 44 37.2031 44
C28.2969 44 23.5938 37.7344 21.7969 35.2344
C21.5 40.9062 17.4062 44 13 44
C9.79688 44 7.59375 42.1094 5.90625 38.7188
C4.09375 35.125 2.70312 29.1406 2.70312 28.7344
C2.70312 28.3438 3.09375 27.8438 3.79688 27.8438
C4.59375 27.8438 4.70312 27.9375 5.29688 30.2344
C6.90625 36.3281 8.70312 42.0156 12.7031 42.0156
C15 42.0156 15.7969 40.4062 15.7969 37.4219
C15.7969 35.2188 14.7969 31.3281 14.0938 28.2344
L11.2969 17.4688
C10.9062 15.5625 9.79688 11.0781 9.29688 9.28125
C8.59375 6.6875 7.5 2 7.5 1.5
C7.5 0.09375 8.59375 -1 10.0938 -1
C11.2969 -1 12.7031 -0.40625 13.5 1.09375
C13.7031 1.59375 14.5938 5.09375 15.0938 7.07812
L17.2969 16.0625
z
" id="CMMI12-110"/>
     <path d="
M20.7969 73
L12.5 73
L12.5 39.1406
L14.7031 16.7969
L18.5938 16.7969
L20.7969 39.1406
z

M20.7969 10.4219
L12.4062 10.4219
L12.4062 0
L20.7969 0
z
" id="Nimbus_Sans_L_Regular-33"/>
     <path d="
M65.9062 23
C67.5938 23 69.4062 23 69.4062 25
C69.4062 27 67.5938 27 65.9062 27
L11.7969 27
C10.0938 27 8.29688 27 8.29688 25
C8.29688 23 10.0938 23 11.7969 23
z
" id="CMSY10-0"/>
     <path d="
M15 52.4844
L6.70312 52.4844
L6.70312 0
L15 0
z

M15 73
L6.59375 73
L6.59375 62.4844
L15 62.4844
z
" id="Nimbus_Sans_L_Regular-105"/>
     <path d="
M7 52.4844
L7 0
L15.4062 0
L15.4062 32.9531
C15.4062 40.5781 20.9062 46.6875 27.7031 46.6875
C33.9062 46.6875 37.4062 42.875 37.4062 36.1562
L37.4062 0
L45.7969 0
L45.7969 32.9531
C45.7969 40.5781 51.2969 46.6875 58.0938 46.6875
C64.2031 46.6875 67.7969 42.7812 67.7969 36.1562
L67.7969 0
L76.2031 0
L76.2031 39.375
C76.2031 48.7812 70.7969 54 61 54
C54 54 49.7969 51.8906 44.9062 45.9844
C41.7969 51.5938 37.5938 54 30.7969 54
C23.7969 54 19.2031 51.3906 14.7031 45.0781
L14.7031 52.4844
z
" id="Nimbus_Sans_L_Regular-109"/>
     <path d="
M39.0938 37.4375
L63.7031 73
L52.5938 73
L33.7969 44.3438
L15.0938 73
L3.79688 73
L28 37.4375
L2.20312 -0.03125
L13.5 -0.03125
L33.5 30.4219
L53.4062 -0.03125
L64.9062 -0.03125
z
" id="Nimbus_Sans_L_Regular-88"/>
     <path d="
M18.2969 33
L58 33
L58 41.2188
L18.2969 41.2188
L18.2969 64.7812
L59.5 64.7812
L59.5 73
L9 73
L9 0
L61.2969 0
L61.2969 8.21875
L18.2969 8.21875
z
" id="Nimbus_Sans_L_Regular-69"/>
     <path d="
M126.594 -139.984
L138.703 -107.984
L136.203 -107.984
C132.297 -118.391 121.703 -125.188 110.203 -128.188
C108.094 -128.688 98.2969 -131.281 79.0938 -131.281
L18.7969 -131.281
L69.7031 -71.5781
C70.4062 -70.7812 70.5938 -70.4844 70.5938 -69.9844
C70.5938 -69.7812 70.5938 -69.4844 69.9062 -68.4844
L23.2969 -4.78125
L78.0938 -4.78125
C91.5 -4.78125 100.594 -6.1875 101.5 -6.39062
C106.906 -7.1875 115.594 -8.89062 123.5 -13.8906
C126 -15.4844 132.797 -19.9844 136.203 -28.0781
L138.703 -28.0781
L126.594 0.015625
L8.40625 0.015625
C6.09375 0.015625 6 -0.078125 5.70312 -0.6875
C5.59375 -0.984375 5.59375 -2.89062 5.59375 -3.98438
L58.5 -76.375
L6.70312 -137.078
C5.70312 -138.281 5.70312 -138.781 5.70312 -138.891
C5.70312 -139.984 6.59375 -139.984 8.40625 -139.984
z
" id="CMEX10-88"/>
     <path d="
M64.5938 73
L55.7969 73
L55.7969 13.2969
L17.7031 73
L7.59375 73
L7.59375 -0.03125
L16.4062 -0.03125
L16.4062 59.1719
L54.0938 -0.03125
L64.5938 -0.03125
z
" id="Nimbus_Sans_L_Regular-78"/>
     <path d="
M35.4062 64.7812
L59.2969 64.7812
L59.2969 73
L2.09375 73
L2.09375 64.7812
L26.0938 64.7812
L26.0938 -0.21875
L35.4062 -0.21875
z
" id="Nimbus_Sans_L_Regular-84"/>
     <path d="
M48.2031 0.515625
L48.2031 53
L39.9062 53
L39.9062 23.1094
C39.9062 12.3438 34.2969 5.3125 25.5938 5.3125
C19 5.3125 14.7969 9.32812 14.7969 15.6719
L14.7969 53
L6.5 53
L6.5 12.375
C6.5 3.625 13 -2 23.2031 -2
C30.9062 -2 35.7969 0.703125 40.7031 7.625
L40.7031 0.515625
z
" id="Nimbus_Sans_L_Regular-117"/>
     <path d="
M6.90625 52.4844
L6.90625 0
L15.2969 0
L15.2969 27.25
C15.2969 34.7656 17.2031 39.6719 21.2031 42.5781
C23.7969 44.4844 26.2969 45.0781 32.0938 45.0781
L32.0938 53.7031
C30.7031 53.8906 30 54 28.9062 54
C23.5 54 19.4062 50.7812 14.5938 42.9688
L14.5938 52.4844
z
" id="Nimbus_Sans_L_Regular-114"/>
    </defs>
    <g style="fill:#ff0000;" transform="translate(146.224228114 52.9090983519)scale(0.16 -0.16)">
     <use transform="translate(0.0 116.353636631)scale(0.996264009963)" xlink:href="#Nimbus_Sans_L_Regular-84"/>
     <use transform="translate(44.2636834284 90.3014452639)scale(0.996264009963)" xlink:href="#Nimbus_Sans_L_Regular-69"/>
     <use transform="translate(98.2604144371 116.353636631)scale(0.996264009963)" xlink:href="#Nimbus_Sans_L_Regular-88"/>
     <use transform="translate(192.405615174 116.353636631)scale(0.996264009963)" xlink:href="#Nimbus_Sans_L_Regular-105"/>
     <use transform="translate(214.522399522 116.353636631)scale(0.996264009963)" xlink:href="#Nimbus_Sans_L_Regular-115"/>
     <use transform="translate(292.030769624 116.353636631)scale(0.996264009963)" xlink:href="#Nimbus_Sans_L_Regular-78"/>
     <use transform="translate(363.960754471 116.353636631)scale(0.996264009963)" xlink:href="#Nimbus_Sans_L_Regular-117"/>
     <use transform="translate(419.352431434 116.353636631)scale(0.996264009963)" xlink:href="#Nimbus_Sans_L_Regular-109"/>
     <use transform="translate(502.340861661 116.353636631)scale(0.996264009963)" xlink:href="#Nimbus_Sans_L_Regular-98"/>
     <use transform="translate(557.732538625 116.353636631)scale(0.996264009963)" xlink:href="#Nimbus_Sans_L_Regular-101"/>
     <use transform="translate(613.124215588 116.353636631)scale(0.996264009963)" xlink:href="#Nimbus_Sans_L_Regular-114"/>
     <use transform="translate(711.078025276 240.887276351)scale(0.697381766617)" xlink:href="#CMSY10-49"/>
     <use transform="translate(673.994614921 210.999264842)scale(0.996264009963)" xlink:href="#CMEX10-88"/>
     <use transform="translate(684.475134141 0.0)scale(0.697381766617)" xlink:href="#CMMI12-110"/>
     <use transform="translate(725.235977268 0.0)scale(0.697381766617)" xlink:href="#CMR17-61"/>
     <use transform="translate(775.436108733 0.0)scale(0.697381766617)" xlink:href="#CMR17-49"/>
     <use transform="translate(835.699728922 183.751681317)scale(0.996264009963)" xlink:href="#CMSY10-0"/>
     <use transform="translate(913.187196572 183.751681317)scale(0.996264009963)" xlink:href="#CMMI12-101"/>
     <use transform="translate(958.399197589 219.905320259)scale(0.697381766617)" xlink:href="#CMMI12-105"/>
     <use transform="translate(981.69410487 219.905320259)scale(0.697381766617)" xlink:href="#CMMI12-25"/>
     <use transform="translate(886.089867465 48.0147992392)scale(0.996264009963)" xlink:href="#CMR17-50"/>
     <use transform="translate(931.780344582 76.7957561488)scale(0.697381766617)" xlink:href="#CMMI12-110"/>
     <use transform="translate(1024.62497203 116.353636631)scale(0.996264009963)" xlink:href="#Nimbus_Sans_L_Regular-33"/>
     <path d="
M835.7 139.268
L1023.43 139.268
L1023.43 143.253
L835.7 143.253
L835.7 139.268
z
"/>
    </g>
   </g>
  </g>
 </g>
 <defs>
  <clipPath id="p953632d85f">
   <rect height="185.834812276" width="359.596053082" x="51.965126041" y="57.9090983519"/>
  </clipPath>
 </defs>
</svg>
