<?xml version="1.0" encoding="utf-8" standalone="no"?>
<!DOCTYPE svg PUBLIC "-//W3C//DTD SVG 1.1//EN"
  "http://www.w3.org/Graphics/SVG/1.1/DTD/svg11.dtd">
<!-- Created with matplotlib (http://matplotlib.org/) -->
<svg height="345.6pt" version="1.1" viewBox="0 0 460.8 345.6" width="460.8pt" xmlns="http://www.w3.org/2000/svg" xmlns:xlink="http://www.w3.org/1999/xlink">
 <defs>
  <style type="text/css">
*{stroke-linecap:butt;stroke-linejoin:round;}
  </style>
 </defs>
 <g id="figure_1">
  <g id="patch_1">
   <path d="M 0 345.6 
L 460.8 345.6 
L 460.8 0 
L 0 0 
z
" style="fill:#ffffff;"/>
  </g>
  <g id="axes_1">
   <g id="patch_2">
    <path d="M 57.6 307.584 
L 414.72 307.584 
L 414.72 41.472 
L 57.6 41.472 
z
" style="fill:#ffffff;"/>
   </g>
   <g id="matplotlib.axis_1">
    <g id="xtick_1">
     <g id="line2d_1">
      <defs>
       <path d="M 0 0 
L 0 3.5 
" id="med63a5d004" style="stroke:#000000;stroke-width:0.8;"/>
      </defs>
      <g>
       <use style="stroke:#000000;stroke-width:0.8;" x="73.832727" xlink:href="#med63a5d004" y="307.584"/>
      </g>
     </g>
     <g id="text_1">
      <!-- 0.0 -->
      <defs>
       <path d="M 31.78125 66.40625 
Q 24.171875 66.40625 20.328125 58.90625 
Q 16.5 51.421875 16.5 36.375 
Q 16.5 21.390625 20.328125 13.890625 
Q 24.171875 6.390625 31.78125 6.390625 
Q 39.453125 6.390625 43.28125 13.890625 
Q 47.125 21.390625 47.125 36.375 
Q 47.125 51.421875 43.28125 58.90625 
Q 39.453125 66.40625 31.78125 66.40625 
z
M 31.78125 74.21875 
Q 44.046875 74.21875 50.515625 64.515625 
Q 56.984375 54.828125 56.984375 36.375 
Q 56.984375 17.96875 50.515625 8.265625 
Q 44.046875 -1.421875 31.78125 -1.421875 
Q 19.53125 -1.421875 13.0625 8.265625 
Q 6.59375 17.96875 6.59375 36.375 
Q 6.59375 54.828125 13.0625 64.515625 
Q 19.53125 74.21875 31.78125 74.21875 
z
" id="DejaVuSans-30"/>
       <path d="M 10.6875 12.40625 
L 21 12.40625 
L 21 0 
L 10.6875 0 
z
" id="DejaVuSans-2e"/>
      </defs>
      <g transform="translate(65.881165 322.182437)scale(0.1 -0.1)">
       <use xlink:href="#DejaVuSans-30"/>
       <use x="63.623047" xlink:href="#DejaVuSans-2e"/>
       <use x="95.410156" xlink:href="#DejaVuSans-30"/>
      </g>
     </g>
    </g>
    <g id="xtick_2">
     <g id="line2d_2">
      <g>
       <use style="stroke:#000000;stroke-width:0.8;" x="138.763643" xlink:href="#med63a5d004" y="307.584"/>
      </g>
     </g>
     <g id="text_2">
      <!-- 0.2 -->
      <defs>
       <path d="M 19.1875 8.296875 
L 53.609375 8.296875 
L 53.609375 0 
L 7.328125 0 
L 7.328125 8.296875 
Q 12.9375 14.109375 22.625 23.890625 
Q 32.328125 33.6875 34.8125 36.53125 
Q 39.546875 41.84375 41.421875 45.53125 
Q 43.3125 49.21875 43.3125 52.78125 
Q 43.3125 58.59375 39.234375 62.25 
Q 35.15625 65.921875 28.609375 65.921875 
Q 23.96875 65.921875 18.8125 64.3125 
Q 13.671875 62.703125 7.8125 59.421875 
L 7.8125 69.390625 
Q 13.765625 71.78125 18.9375 73 
Q 24.125 74.21875 28.421875 74.21875 
Q 39.75 74.21875 46.484375 68.546875 
Q 53.21875 62.890625 53.21875 53.421875 
Q 53.21875 48.921875 51.53125 44.890625 
Q 49.859375 40.875 45.40625 35.40625 
Q 44.1875 33.984375 37.640625 27.21875 
Q 31.109375 20.453125 19.1875 8.296875 
z
" id="DejaVuSans-32"/>
      </defs>
      <g transform="translate(130.81208 322.182437)scale(0.1 -0.1)">
       <use xlink:href="#DejaVuSans-30"/>
       <use x="63.623047" xlink:href="#DejaVuSans-2e"/>
       <use x="95.410156" xlink:href="#DejaVuSans-32"/>
      </g>
     </g>
    </g>
    <g id="xtick_3">
     <g id="line2d_3">
      <g>
       <use style="stroke:#000000;stroke-width:0.8;" x="203.694558" xlink:href="#med63a5d004" y="307.584"/>
      </g>
     </g>
     <g id="text_3">
      <!-- 0.4 -->
      <defs>
       <path d="M 37.796875 64.3125 
L 12.890625 25.390625 
L 37.796875 25.390625 
z
M 35.203125 72.90625 
L 47.609375 72.90625 
L 47.609375 25.390625 
L 58.015625 25.390625 
L 58.015625 17.1875 
L 47.609375 17.1875 
L 47.609375 0 
L 37.796875 0 
L 37.796875 17.1875 
L 4.890625 17.1875 
L 4.890625 26.703125 
z
" id="DejaVuSans-34"/>
      </defs>
      <g transform="translate(195.742996 322.182437)scale(0.1 -0.1)">
       <use xlink:href="#DejaVuSans-30"/>
       <use x="63.623047" xlink:href="#DejaVuSans-2e"/>
       <use x="95.410156" xlink:href="#DejaVuSans-34"/>
      </g>
     </g>
    </g>
    <g id="xtick_4">
     <g id="line2d_4">
      <g>
       <use style="stroke:#000000;stroke-width:0.8;" x="268.625474" xlink:href="#med63a5d004" y="307.584"/>
      </g>
     </g>
     <g id="text_4">
      <!-- 0.6 -->
      <defs>
       <path d="M 33.015625 40.375 
Q 26.375 40.375 22.484375 35.828125 
Q 18.609375 31.296875 18.609375 23.390625 
Q 18.609375 15.53125 22.484375 10.953125 
Q 26.375 6.390625 33.015625 6.390625 
Q 39.65625 6.390625 43.53125 10.953125 
Q 47.40625 15.53125 47.40625 23.390625 
Q 47.40625 31.296875 43.53125 35.828125 
Q 39.65625 40.375 33.015625 40.375 
z
M 52.59375 71.296875 
L 52.59375 62.3125 
Q 48.875 64.0625 45.09375 64.984375 
Q 41.3125 65.921875 37.59375 65.921875 
Q 27.828125 65.921875 22.671875 59.328125 
Q 17.53125 52.734375 16.796875 39.40625 
Q 19.671875 43.65625 24.015625 45.921875 
Q 28.375 48.1875 33.59375 48.1875 
Q 44.578125 48.1875 50.953125 41.515625 
Q 57.328125 34.859375 57.328125 23.390625 
Q 57.328125 12.15625 50.6875 5.359375 
Q 44.046875 -1.421875 33.015625 -1.421875 
Q 20.359375 -1.421875 13.671875 8.265625 
Q 6.984375 17.96875 6.984375 36.375 
Q 6.984375 53.65625 15.1875 63.9375 
Q 23.390625 74.21875 37.203125 74.21875 
Q 40.921875 74.21875 44.703125 73.484375 
Q 48.484375 72.75 52.59375 71.296875 
z
" id="DejaVuSans-36"/>
      </defs>
      <g transform="translate(260.673912 322.182437)scale(0.1 -0.1)">
       <use xlink:href="#DejaVuSans-30"/>
       <use x="63.623047" xlink:href="#DejaVuSans-2e"/>
       <use x="95.410156" xlink:href="#DejaVuSans-36"/>
      </g>
     </g>
    </g>
    <g id="xtick_5">
     <g id="line2d_5">
      <g>
       <use style="stroke:#000000;stroke-width:0.8;" x="333.55639" xlink:href="#med63a5d004" y="307.584"/>
      </g>
     </g>
     <g id="text_5">
      <!-- 0.8 -->
      <defs>
       <path d="M 31.78125 34.625 
Q 24.75 34.625 20.71875 30.859375 
Q 16.703125 27.09375 16.703125 20.515625 
Q 16.703125 13.921875 20.71875 10.15625 
Q 24.75 6.390625 31.78125 6.390625 
Q 38.8125 6.390625 42.859375 10.171875 
Q 46.921875 13.96875 46.921875 20.515625 
Q 46.921875 27.09375 42.890625 30.859375 
Q 38.875 34.625 31.78125 34.625 
z
M 21.921875 38.8125 
Q 15.578125 40.375 12.03125 44.71875 
Q 8.5 49.078125 8.5 55.328125 
Q 8.5 64.0625 14.71875 69.140625 
Q 20.953125 74.21875 31.78125 74.21875 
Q 42.671875 74.21875 48.875 69.140625 
Q 55.078125 64.0625 55.078125 55.328125 
Q 55.078125 49.078125 51.53125 44.71875 
Q 48 40.375 41.703125 38.8125 
Q 48.828125 37.15625 52.796875 32.3125 
Q 56.78125 27.484375 56.78125 20.515625 
Q 56.78125 9.90625 50.3125 4.234375 
Q 43.84375 -1.421875 31.78125 -1.421875 
Q 19.734375 -1.421875 13.25 4.234375 
Q 6.78125 9.90625 6.78125 20.515625 
Q 6.78125 27.484375 10.78125 32.3125 
Q 14.796875 37.15625 21.921875 38.8125 
z
M 18.3125 54.390625 
Q 18.3125 48.734375 21.84375 45.5625 
Q 25.390625 42.390625 31.78125 42.390625 
Q 38.140625 42.390625 41.71875 45.5625 
Q 45.3125 48.734375 45.3125 54.390625 
Q 45.3125 60.0625 41.71875 63.234375 
Q 38.140625 66.40625 31.78125 66.40625 
Q 25.390625 66.40625 21.84375 63.234375 
Q 18.3125 60.0625 18.3125 54.390625 
z
" id="DejaVuSans-38"/>
      </defs>
      <g transform="translate(325.604827 322.182437)scale(0.1 -0.1)">
       <use xlink:href="#DejaVuSans-30"/>
       <use x="63.623047" xlink:href="#DejaVuSans-2e"/>
       <use x="95.410156" xlink:href="#DejaVuSans-38"/>
      </g>
     </g>
    </g>
    <g id="xtick_6">
     <g id="line2d_6">
      <g>
       <use style="stroke:#000000;stroke-width:0.8;" x="398.487305" xlink:href="#med63a5d004" y="307.584"/>
      </g>
     </g>
     <g id="text_6">
      <!-- 1.0 -->
      <defs>
       <path d="M 12.40625 8.296875 
L 28.515625 8.296875 
L 28.515625 63.921875 
L 10.984375 60.40625 
L 10.984375 69.390625 
L 28.421875 72.90625 
L 38.28125 72.90625 
L 38.28125 8.296875 
L 54.390625 8.296875 
L 54.390625 0 
L 12.40625 0 
z
" id="DejaVuSans-31"/>
      </defs>
      <g transform="translate(390.535743 322.182437)scale(0.1 -0.1)">
       <use xlink:href="#DejaVuSans-31"/>
       <use x="63.623047" xlink:href="#DejaVuSans-2e"/>
       <use x="95.410156" xlink:href="#DejaVuSans-30"/>
      </g>
     </g>
    </g>
    <g id="text_7">
     <!-- 1e7 -->
     <defs>
      <path d="M 56.203125 29.59375 
L 56.203125 25.203125 
L 14.890625 25.203125 
Q 15.484375 15.921875 20.484375 11.0625 
Q 25.484375 6.203125 34.421875 6.203125 
Q 39.59375 6.203125 44.453125 7.46875 
Q 49.3125 8.734375 54.109375 11.28125 
L 54.109375 2.78125 
Q 49.265625 0.734375 44.1875 -0.34375 
Q 39.109375 -1.421875 33.890625 -1.421875 
Q 20.796875 -1.421875 13.15625 6.1875 
Q 5.515625 13.8125 5.515625 26.8125 
Q 5.515625 40.234375 12.765625 48.109375 
Q 20.015625 56 32.328125 56 
Q 43.359375 56 49.78125 48.890625 
Q 56.203125 41.796875 56.203125 29.59375 
z
M 47.21875 32.234375 
Q 47.125 39.59375 43.09375 43.984375 
Q 39.0625 48.390625 32.421875 48.390625 
Q 24.90625 48.390625 20.390625 44.140625 
Q 15.875 39.890625 15.1875 32.171875 
z
" id="DejaVuSans-65"/>
      <path d="M 8.203125 72.90625 
L 55.078125 72.90625 
L 55.078125 68.703125 
L 28.609375 0 
L 18.3125 0 
L 43.21875 64.59375 
L 8.203125 64.59375 
z
" id="DejaVuSans-37"/>
     </defs>
     <g transform="translate(395.841875 334.860562)scale(0.1 -0.1)">
      <use xlink:href="#DejaVuSans-31"/>
      <use x="63.623047" xlink:href="#DejaVuSans-65"/>
      <use x="125.146484" xlink:href="#DejaVuSans-37"/>
     </g>
    </g>
   </g>
   <g id="matplotlib.axis_2">
    <g id="ytick_1">
     <g id="line2d_7">
      <defs>
       <path d="M 0 0 
L -3.5 0 
" id="m5de937f04a" style="stroke:#000000;stroke-width:0.8;"/>
      </defs>
      <g>
       <use style="stroke:#000000;stroke-width:0.8;" x="57.6" xlink:href="#m5de937f04a" y="295.791765"/>
      </g>
     </g>
     <g id="text_8">
      <!-- −100 -->
      <defs>
       <path d="M 10.59375 35.5 
L 73.1875 35.5 
L 73.1875 27.203125 
L 10.59375 27.203125 
z
" id="DejaVuSans-2212"/>
      </defs>
      <g transform="translate(23.132812 299.590984)scale(0.1 -0.1)">
       <use xlink:href="#DejaVuSans-2212"/>
       <use x="83.789062" xlink:href="#DejaVuSans-31"/>
       <use x="147.412109" xlink:href="#DejaVuSans-30"/>
       <use x="211.035156" xlink:href="#DejaVuSans-30"/>
      </g>
     </g>
    </g>
    <g id="ytick_2">
     <g id="line2d_8">
      <g>
       <use style="stroke:#000000;stroke-width:0.8;" x="57.6" xlink:href="#m5de937f04a" y="265.399844"/>
      </g>
     </g>
     <g id="text_9">
      <!-- −75 -->
      <defs>
       <path d="M 10.796875 72.90625 
L 49.515625 72.90625 
L 49.515625 64.59375 
L 19.828125 64.59375 
L 19.828125 46.734375 
Q 21.96875 47.46875 24.109375 47.828125 
Q 26.265625 48.1875 28.421875 48.1875 
Q 40.625 48.1875 47.75 41.5 
Q 54.890625 34.8125 54.890625 23.390625 
Q 54.890625 11.625 47.5625 5.09375 
Q 40.234375 -1.421875 26.90625 -1.421875 
Q 22.3125 -1.421875 17.546875 -0.640625 
Q 12.796875 0.140625 7.71875 1.703125 
L 7.71875 11.625 
Q 12.109375 9.234375 16.796875 8.0625 
Q 21.484375 6.890625 26.703125 6.890625 
Q 35.15625 6.890625 40.078125 11.328125 
Q 45.015625 15.765625 45.015625 23.390625 
Q 45.015625 31 40.078125 35.4375 
Q 35.15625 39.890625 26.703125 39.890625 
Q 22.75 39.890625 18.8125 39.015625 
Q 14.890625 38.140625 10.796875 36.28125 
z
" id="DejaVuSans-35"/>
      </defs>
      <g transform="translate(29.495313 269.199063)scale(0.1 -0.1)">
       <use xlink:href="#DejaVuSans-2212"/>
       <use x="83.789062" xlink:href="#DejaVuSans-37"/>
       <use x="147.412109" xlink:href="#DejaVuSans-35"/>
      </g>
     </g>
    </g>
    <g id="ytick_3">
     <g id="line2d_9">
      <g>
       <use style="stroke:#000000;stroke-width:0.8;" x="57.6" xlink:href="#m5de937f04a" y="235.007923"/>
      </g>
     </g>
     <g id="text_10">
      <!-- −50 -->
      <g transform="translate(29.495313 238.807142)scale(0.1 -0.1)">
       <use xlink:href="#DejaVuSans-2212"/>
       <use x="83.789062" xlink:href="#DejaVuSans-35"/>
       <use x="147.412109" xlink:href="#DejaVuSans-30"/>
      </g>
     </g>
    </g>
    <g id="ytick_4">
     <g id="line2d_10">
      <g>
       <use style="stroke:#000000;stroke-width:0.8;" x="57.6" xlink:href="#m5de937f04a" y="204.616002"/>
      </g>
     </g>
     <g id="text_11">
      <!-- −25 -->
      <g transform="translate(29.495313 208.415221)scale(0.1 -0.1)">
       <use xlink:href="#DejaVuSans-2212"/>
       <use x="83.789062" xlink:href="#DejaVuSans-32"/>
       <use x="147.412109" xlink:href="#DejaVuSans-35"/>
      </g>
     </g>
    </g>
    <g id="ytick_5">
     <g id="line2d_11">
      <g>
       <use style="stroke:#000000;stroke-width:0.8;" x="57.6" xlink:href="#m5de937f04a" y="174.224081"/>
      </g>
     </g>
     <g id="text_12">
      <!-- 0 -->
      <g transform="translate(44.2375 178.0233)scale(0.1 -0.1)">
       <use xlink:href="#DejaVuSans-30"/>
      </g>
     </g>
    </g>
    <g id="ytick_6">
     <g id="line2d_12">
      <g>
       <use style="stroke:#000000;stroke-width:0.8;" x="57.6" xlink:href="#m5de937f04a" y="143.83216"/>
      </g>
     </g>
     <g id="text_13">
      <!-- 25 -->
      <g transform="translate(37.875 147.631379)scale(0.1 -0.1)">
       <use xlink:href="#DejaVuSans-32"/>
       <use x="63.623047" xlink:href="#DejaVuSans-35"/>
      </g>
     </g>
    </g>
    <g id="ytick_7">
     <g id="line2d_13">
      <g>
       <use style="stroke:#000000;stroke-width:0.8;" x="57.6" xlink:href="#m5de937f04a" y="113.440239"/>
      </g>
     </g>
     <g id="text_14">
      <!-- 50 -->
      <g transform="translate(37.875 117.239458)scale(0.1 -0.1)">
       <use xlink:href="#DejaVuSans-35"/>
       <use x="63.623047" xlink:href="#DejaVuSans-30"/>
      </g>
     </g>
    </g>
    <g id="ytick_8">
     <g id="line2d_14">
      <g>
       <use style="stroke:#000000;stroke-width:0.8;" x="57.6" xlink:href="#m5de937f04a" y="83.048318"/>
      </g>
     </g>
     <g id="text_15">
      <!-- 75 -->
      <g transform="translate(37.875 86.847537)scale(0.1 -0.1)">
       <use xlink:href="#DejaVuSans-37"/>
       <use x="63.623047" xlink:href="#DejaVuSans-35"/>
      </g>
     </g>
    </g>
    <g id="ytick_9">
     <g id="line2d_15">
      <g>
       <use style="stroke:#000000;stroke-width:0.8;" x="57.6" xlink:href="#m5de937f04a" y="52.656397"/>
      </g>
     </g>
     <g id="text_16">
      <!-- 100 -->
      <g transform="translate(31.5125 56.455616)scale(0.1 -0.1)">
       <use xlink:href="#DejaVuSans-31"/>
       <use x="63.623047" xlink:href="#DejaVuSans-30"/>
       <use x="127.246094" xlink:href="#DejaVuSans-30"/>
      </g>
     </g>
    </g>
   </g>
   <g id="line2d_16">
    <path clip-path="url(#pedba0cba3d)" d="M 73.832727 174.224081 
L 74.24624 174.112974 
L 74.985511 173.883134 
L 75.306107 174.066268 
L 75.778058 174.649276 
L 76.274617 175.138369 
L 76.526386 175.10888 
L 76.783805 174.822099 
L 77.180793 173.979344 
L 77.795786 172.765181 
L 78.026875 172.707633 
L 78.22683 172.91434 
L 78.511259 173.590236 
L 79.543466 176.359048 
L 79.708975 176.269938 
L 79.919092 175.838448 
L 80.25868 174.535857 
L 81.011619 171.615252 
L 81.218229 171.492285 
L 81.371466 171.685772 
L 81.601809 172.412726 
L 82.014834 174.612853 
L 82.581584 177.305178 
L 82.807251 177.571001 
L 82.941074 177.429077 
L 83.140379 176.810134 
L 83.47302 174.913859 
L 84.238556 170.480946 
L 84.43653 170.273963 
L 84.441887 170.276359 
L 84.570645 170.462722 
L 84.773976 171.239629 
L 85.120447 173.611184 
L 85.838129 178.480808 
L 86.047629 178.784038 
L 86.050583 178.783025 
L 86.16801 178.621362 
L 86.355401 177.888601 
L 86.669374 175.595824 
L 87.499159 169.271206 
L 87.667882 169.056992 
L 87.688076 169.068036 
L 87.807613 169.295416 
L 88.005977 170.257232 
L 88.345858 173.216833 
L 89.080941 179.617198 
L 89.282682 180.000331 
L 89.290993 179.997493 
L 89.396635 179.830823 
L 89.57276 179.030359 
L 89.868099 176.462163 
L 90.774177 168.005733 
L 90.907643 167.84151 
L 90.941601 167.867485 
L 91.061529 168.17936 
L 91.265899 169.458719 
L 91.623279 173.382503 
L 92.305443 180.654847 
L 92.521858 181.216218 
L 92.524715 181.215571 
L 92.618313 181.075917 
L 92.777491 180.321926 
L 93.044811 177.780561 
L 94.089842 166.654976 
L 94.163084 166.633503 
L 94.203958 166.688 
L 94.334696 167.17866 
L 94.557896 169.046713 
L 94.974493 174.82438 
L 95.532412 181.659432 
L 95.760352 182.432155 
L 95.845347 182.317637 
L 95.990175 181.618337 
L 96.235614 179.132275 
L 96.785286 170.572481 
L 97.201234 165.937305 
L 97.386742 165.408752 
L 97.403851 165.416546 
L 97.495371 165.622332 
L 97.660425 166.672732 
L 97.939498 170.144186 
L 98.918462 183.518727 
L 99.013488 183.645993 
L 99.060044 183.59218 
L 99.178802 183.110898 
L 99.386127 181.160019 
L 99.755162 175.160634 
L 100.406127 165.088764 
L 100.630041 164.193092 
L 100.630365 164.193135 
L 100.707601 164.315944 
L 100.846715 165.094205 
L 101.08459 167.924664 
L 101.57563 177.144909 
L 102.04086 184.011855 
L 102.252535 184.862816 
L 102.258573 184.861334 
L 102.335646 184.714745 
L 102.478721 183.826087 
L 102.722959 180.650746 
L 103.267989 169.742675 
L 103.687703 163.68401 
L 103.875288 162.977612 
L 103.892073 162.985763 
L 103.975119 163.200572 
L 104.131051 164.368507 
L 104.395936 168.340912 
L 105.44772 186.028981 
L 105.505736 186.075939 
L 105.555538 185.99704 
L 105.676212 185.353643 
L 105.887724 182.787449 
L 106.270265 174.880093 
L 106.890323 162.945803 
L 107.117873 161.761892 
L 107.186862 161.873115 
L 107.314711 162.6595 
L 107.53684 165.673536 
L 107.954735 175.046389 
L 108.510154 186.019093 
L 108.73923 187.293983 
L 108.806694 187.187537 
L 108.931588 186.409028 
L 109.149626 183.379326 
L 109.553334 174.001381 
L 110.132388 161.888745 
L 110.361789 160.54644 
L 110.427791 160.65168 
L 110.550803 161.43693 
L 110.766276 164.522622 
L 111.161868 174.058093 
L 111.755661 187.111037 
L 111.984835 188.509507 
L 112.049408 188.404155 
L 112.170992 187.606718 
L 112.384582 184.44906 
L 112.77446 174.698591 
L 113.379259 160.781489 
L 113.608075 159.33085 
L 113.671285 159.436848 
L 113.791667 160.248675 
L 114.003667 163.483964 
L 114.388934 173.471535 
L 115.002986 188.22429 
L 115.23138 189.725123 
L 115.293325 189.618228 
L 115.412635 188.79108 
L 115.623206 185.476072 
L 116.00448 175.242361 
L 116.626843 159.664091 
L 116.854783 158.115225 
L 116.915494 158.223201 
L 117.03383 159.066273 
L 117.243135 162.463065 
L 117.620903 172.949945 
L 118.250765 189.345301 
L 118.478218 190.94075 
L 118.537793 190.831473 
L 118.655285 189.971334 
L 118.863486 186.489719 
L 119.2383 175.737965 
L 119.874688 158.541019 
L 120.101654 156.899606 
L 120.160189 157.010318 
L 120.276902 157.887917 
L 120.484129 161.456166 
L 120.856313 172.477818 
L 121.498642 190.470071 
L 121.725121 192.156356 
L 121.78265 192.04417 
L 121.898649 191.148832 
L 122.104935 187.494349 
L 122.474684 176.202316 
L 123.122597 157.414527 
L 123.348621 155.684016 
L 123.405209 155.797864 
L 123.520591 156.711972 
L 123.726097 160.456455 
L 124.093834 172.030772 
L 124.746487 191.596824 
L 124.971927 193.371941 
L 124.972057 193.371932 
L 125.0278 193.256463 
L 125.142565 192.324097 
L 125.347292 188.491382 
L 125.713048 176.639517 
L 126.370441 156.286538 
L 126.595005 154.468412 
L 126.595557 154.468458 
L 126.650521 154.585917 
L 126.764799 155.538478 
L 126.96891 159.464828 
L 127.33314 171.610867 
L 127.994234 192.724386 
L 128.218083 194.587563 
L 128.218992 194.587475 
L 128.273209 194.468298 
L 128.386968 193.49684 
L 128.590397 189.481151 
L 128.952939 177.053928 
L 129.618156 155.158342 
L 129.841161 153.252785 
L 129.84246 153.252928 
L 129.895995 153.3741 
L 130.009332 154.365941 
L 130.212241 158.476186 
L 130.573484 171.199998 
L 131.241916 193.853041 
L 131.464272 195.803191 
L 131.465895 195.80299 
L 131.518814 195.679796 
L 131.631761 194.667377 
L 131.834183 190.462225 
L 132.194257 177.439161 
L 132.865643 154.032027 
L 133.087382 152.037155 
L 133.089298 152.037417 
L 133.141632 152.162526 
L 133.25419 153.195033 
L 133.456092 157.492798 
L 133.814933 170.808092 
L 134.489468 194.981421 
L 134.710493 197.018825 
L 134.712733 197.018487 
L 134.764515 196.89128 
L 134.876748 195.837651 
L 135.078261 191.442971 
L 135.436128 177.82405 
L 136.11313 152.903976 
L 136.333603 150.821518 
L 136.336136 150.821932 
L 136.387431 150.951301 
L 136.49934 152.02595 
L 136.700463 156.516915 
L 137.057388 170.438301 
L 137.736793 196.107311 
L 137.956746 198.234463 
L 137.959506 198.233978 
L 138.010314 198.102684 
L 138.121898 197.007731 
L 138.3226 192.423084 
L 138.678518 178.206296 
L 139.360553 151.775467 
L 139.579889 149.605879 
L 139.582941 149.606463 
L 139.63336 149.740373 
L 139.744749 150.858802 
L 139.945223 155.546742 
L 140.300655 170.088267 
L 140.983988 197.232042 
L 141.203032 199.450105 
L 141.206247 199.44946 
L 141.256211 199.31394 
L 141.367243 198.176779 
L 141.56723 193.400387 
L 141.921493 178.579177 
L 142.607878 150.647342 
L 142.826208 148.390237 
L 142.829747 148.391018 
L 142.879451 148.529996 
L 142.990483 149.695142 
L 143.190503 154.588211 
L 143.544928 169.773228 
L 144.230891 198.351869 
L 144.449351 200.665749 
L 144.452825 200.664989 
L 144.501945 200.52635 
L 144.61223 199.35321 
L 144.811276 194.402732 
L 145.163299 179.027755 
L 145.855755 149.506071 
L 146.072526 147.17459 
L 146.076812 147.17572 
L 146.126159 147.322759 
L 146.237451 148.550613 
L 146.437893 153.697939 
L 146.793454 169.669034 
L 147.4763 199.439691 
L 147.695702 201.881396 
L 147.698754 201.880773 
L 147.746543 201.745212 
L 147.854913 200.56961 
L 148.051361 195.548366 
L 148.397183 179.916991 
L 149.107073 148.287207 
L 149.318877 145.958942 
L 149.325468 145.961537 
L 149.376633 146.13803 
L 149.491951 147.539974 
L 149.698074 153.275249 
L 150.068635 171.030918 
L 150.714178 200.349145 
L 150.941111 203.097039 
L 150.986466 202.988478 
L 151.087823 201.947873 
L 151.274694 197.287189 
L 151.599089 182.599166 
L 152.377383 146.659609 
L 152.565293 144.743294 
L 152.582597 144.760669 
L 152.649249 145.135971 
L 152.788526 147.467956 
L 153.029355 155.918814 
L 153.555879 184.565348 
L 153.990592 202.145468 
L 154.188469 204.312695 
L 154.20139 204.302687 
L 154.261127 204.012148 
L 154.390436 202.030149 
L 154.616526 194.51211 
L 155.054842 170.789789 
L 155.58036 146.53662 
L 155.809047 143.527914 
L 155.845636 143.595544 
L 155.853687 143.631074 
L 155.952252 144.664657 
L 156.13539 149.387402 
L 156.45209 164.366872 
L 157.258175 203.726182 
L 157.434885 205.528348 
L 157.457026 205.498539 
L 157.530366 204.990379 
L 157.679187 202.075755 
L 157.93482 191.908971 
L 159.03277 142.349071 
L 159.060495 142.312449 
L 159.109161 142.470274 
L 159.217498 143.828213 
L 159.414044 149.626067 
L 159.760353 167.679441 
L 160.468619 204.042123 
L 160.681236 206.744005 
L 160.687469 206.741384 
L 160.735843 206.560255 
L 160.847751 205.06096 
L 161.049232 198.802776 
L 161.40778 179.386546 
L 162.082607 144.08935 
L 162.304411 141.096328 
L 162.306359 141.096634 
L 162.349506 141.224103 
L 162.451252 142.431947 
L 162.638805 147.823544 
L 162.964856 164.801844 
L 163.737144 205.703005 
L 163.927684 207.959661 
L 163.943852 207.942433 
L 164.007744 207.55174 
L 164.143482 205.045951 
L 164.379116 195.824648 
L 164.867364 165.651313 
L 165.335841 142.799096 
L 165.55086 139.880671 
L 165.555957 139.882541 
L 165.601863 140.049907 
L 165.70994 141.503605 
L 165.906194 147.719854 
L 166.251919 167.084985 
L 166.961808 206.279515 
L 167.174068 209.17532 
L 167.180463 209.172401 
L 167.227993 208.98303 
L 167.339057 207.400266 
L 167.539466 200.759154 
L 167.895385 180.138009 
L 168.57703 141.834299 
L 168.797276 138.665012 
L 168.799938 138.665581 
L 168.842273 138.801448 
L 168.943792 140.09185 
L 169.131118 145.860803 
L 169.456746 164.035751 
L 170.230398 207.980556 
L 170.420516 210.390979 
L 170.436911 210.372132 
L 170.500673 209.953278 
L 170.636411 207.266587 
L 170.87211 197.378883 
L 171.361008 165.002055 
L 171.828868 140.571029 
L 172.043724 137.449353 
L 172.048918 137.451403 
L 172.093883 137.624413 
L 172.200954 139.146464 
L 172.395877 145.696631 
L 172.738582 166.133675 
L 173.457302 208.583217 
L 173.666932 211.60664 
L 173.674529 211.602336 
L 173.72313 211.383715 
L 173.836434 209.605037 
L 174.03996 202.245292 
L 174.40406 179.424868 
L 175.06483 139.77656 
L 175.29014 136.233691 
L 175.290432 136.233706 
L 175.330007 136.348033 
L 175.425553 137.536382 
L 175.604828 143.088112 
L 175.913996 160.834053 
L 176.748878 210.890071 
L 176.913445 212.822299 
L 176.940619 212.767747 
L 177.020192 211.996341 
L 177.177876 207.857501 
L 177.448054 193.856754 
L 178.464418 135.397476 
L 178.53701 135.018055 
L 178.59113 135.238015 
L 178.702649 137.032674 
L 178.903773 144.540622 
L 179.261639 167.847532 
L 179.938057 210.438486 
L 180.159829 214.037964 
L 180.161777 214.037618 
L 180.201352 213.908096 
L 180.298748 212.601909 
L 180.480555 206.58628 
L 180.794853 187.449777 
L 181.609639 136.050008 
L 181.783102 133.802368 
L 181.806639 133.845213 
L 181.880887 134.528279 
L 182.031365 138.395499 
L 182.289855 151.805726 
L 183.37063 215.1571 
L 183.407283 215.25352 
L 183.460105 215.029514 
L 183.570844 213.183201 
L 183.770897 205.42303 
L 184.126166 181.31191 
L 184.809434 136.295665 
L 185.029517 132.586703 
L 185.032277 132.587381 
L 185.071917 132.728147 
L 185.170255 134.127309 
L 185.35336 140.525229 
L 185.670353 160.831006 
L 186.474912 213.999489 
L 186.65279 216.46929 
L 186.674477 216.431287 
L 186.745836 215.782401 
L 186.892418 211.992247 
L 187.144739 198.658593 
L 188.261097 131.388381 
L 188.278433 131.371593 
L 188.320638 131.532341 
L 188.421476 133.06443 
L 188.608023 139.944707 
L 188.93219 161.65473 
L 189.710712 214.832977 
L 189.899239 217.684956 
L 189.916348 217.660573 
L 189.980337 217.147838 
L 190.116757 213.878707 
L 190.353593 201.883485 
L 190.850769 162.301044 
L 191.310837 133.789782 
L 191.522447 130.155373 
L 191.529167 130.159286 
L 191.574359 130.379096 
L 191.683021 132.272629 
L 191.880248 140.335521 
L 192.228635 165.44392 
L 192.930668 215.098011 
L 193.145687 218.900622 
L 193.150817 218.898279 
L 193.192989 218.712183 
L 193.296716 216.999908 
L 193.487191 209.465828 
L 193.819962 185.826332 
L 194.569395 132.26554 
L 194.76896 128.939709 
L 194.781135 128.952682 
L 194.836391 129.327155 
L 194.960441 132.023307 
L 195.179226 142.522992 
L 195.590076 175.272451 
L 196.156404 215.433365 
L 196.38746 220.114512 
L 196.399473 220.111501 
L 196.427945 220.005318 
L 196.518231 218.752801 
L 196.690526 212.65584 
L 196.986546 192.857233 
L 197.876521 129.38889 
L 198.015506 127.724045 
L 198.052484 127.844725 
L 198.144361 129.169149 
L 198.318831 135.534334 
L 198.618909 156.098798 
L 199.491158 219.431081 
L 199.638714 221.331952 
L 199.672543 221.229719 
L 199.760427 220.02558 
L 199.929507 214.04475 
L 200.219651 194.465897 
L 201.136215 127.908692 
L 201.261987 126.508378 
L 201.30351 126.664206 
L 201.400744 128.225826 
L 201.582453 135.423338 
L 201.896719 158.329462 
L 202.711407 219.848638 
L 202.885162 222.54762 
L 202.908602 222.497171 
L 202.982169 221.695046 
L 203.131932 217.126166 
L 203.389351 201.242201 
L 204.475775 125.389235 
L 204.509149 125.292782 
L 204.561289 125.550461 
L 204.670925 127.700173 
L 204.869548 136.797321 
L 205.221441 165.099291 
L 205.91367 219.431059 
L 206.13161 223.763289 
L 206.135376 223.761886 
L 206.173848 223.596851 
L 206.271764 221.947499 
L 206.454415 214.383763 
L 206.770596 190.354253 
L 207.577947 126.981234 
L 207.754883 124.07704 
L 207.776992 124.123565 
L 207.848449 124.899984 
L 207.995355 129.423498 
L 208.248293 145.319019 
L 209.360657 224.950429 
L 209.379585 224.978714 
L 209.424062 224.777215 
L 209.526166 222.904467 
L 209.714498 214.572723 
L 210.042659 188.349116 
L 210.807221 126.43646 
L 211.001364 122.861372 
L 211.016006 122.882365 
L 211.075093 123.385438 
L 211.204858 126.802395 
L 211.431954 139.732321 
L 211.876081 180.725194 
L 212.393938 221.112189 
L 212.622365 226.194189 
L 212.637039 226.179281 
L 212.657492 226.088592 
L 212.743948 224.810904 
L 212.911177 218.387022 
L 213.198042 197.253247 
L 214.129833 123.0078 
L 214.247942 121.645706 
L 214.291901 121.837715 
L 214.391829 123.678472 
L 214.57724 131.995647 
L 214.8992 158.296039 
L 215.685351 224.017491 
L 215.871118 227.410293 
L 215.889428 227.376411 
L 215.954717 226.713191 
L 216.093214 222.561358 
L 216.333231 207.466314 
L 216.855893 156.415675 
L 217.293917 124.418723 
L 217.494358 120.430035 
L 217.506176 120.444395 
L 217.559841 120.863197 
L 217.681944 123.943943 
L 217.898034 136.066801 
L 218.299826 173.785621 
L 218.88164 223.062359 
L 219.112794 228.623718 
L 219.122631 228.623269 
L 219.151623 228.507278 
L 219.239507 227.115245 
L 219.408652 220.203517 
L 219.69899 197.579455 
L 220.614419 120.849238 
L 220.740937 119.214368 
L 220.7822 119.391385 
L 220.87898 121.172648 
L 221.060137 129.408424 
L 221.373396 155.65035 
L 222.191785 226.783474 
L 222.364145 229.841631 
L 222.388137 229.780926 
L 222.462288 228.837849 
L 222.612927 223.503792 
L 222.871839 205.016212 
L 223.949465 118.148918 
L 223.98784 117.998731 
L 224.04144 118.307733 
L 224.15218 120.840971 
L 224.352394 131.485563 
L 224.708378 164.57027 
L 225.389503 225.942541 
L 225.610593 231.057302 
L 225.612898 231.056691 
L 225.647149 230.914388 
L 225.73815 229.33082 
L 225.911515 221.670351 
L 226.209646 196.854891 
L 227.089979 118.991138 
L 227.233898 116.783027 
L 227.269123 116.917557 
L 227.358501 118.449849 
L 227.529691 125.961344 
L 227.823796 150.422585 
L 228.721953 230.302349 
L 228.857171 232.27297 
L 228.895513 232.111856 
L 228.988754 230.395217 
L 229.165171 222.238266 
L 229.469113 195.994057 
L 230.32474 118.202774 
L 230.480412 115.567357 
L 230.511156 115.672165 
L 230.594723 117.001304 
L 230.758121 123.855786 
L 231.038298 146.649509 
L 232.002392 232.357631 
L 232.103717 233.488639 
L 232.152415 233.223443 
L 232.257538 230.873507 
L 232.450059 220.633411 
L 232.787634 188.57675 
L 233.521516 119.010161 
L 233.72686 114.351685 
L 233.73647 114.36222 
L 233.785233 114.734533 
L 233.900323 117.699644 
L 234.106576 129.835176 
L 234.478598 167.469092 
L 235.120342 228.83185 
L 235.348282 234.703966 
L 235.361269 234.690014 
L 235.380748 234.597472 
L 235.464054 233.236998 
L 235.627128 226.20413 
L 235.906753 202.794 
L 236.873575 114.269574 
L 236.973471 113.136017 
L 237.022559 113.413578 
L 237.128071 115.858196 
L 237.321143 126.483298 
L 237.660018 159.727163 
L 238.389874 231.05417 
L 238.596646 235.919983 
L 238.605574 235.910566 
L 238.652811 235.554468 
L 238.765661 232.642548 
L 238.96883 220.56395 
L 239.332508 183.07547 
L 239.993992 117.770727 
L 240.219887 111.920344 
L 240.219919 111.920344 
L 240.250794 112.032389 
L 240.334457 113.448633 
L 240.498018 120.745737 
L 240.778487 145.000047 
L 241.741023 235.913419 
L 241.843224 237.135652 
L 241.891728 236.856744 
L 241.996559 234.378248 
L 242.188722 223.556885 
L 242.525519 189.663932 
L 243.26177 115.613341 
L 243.4664 110.704673 
L 243.476334 110.716607 
L 243.52552 111.121246 
L 243.641324 114.315843 
L 243.848616 127.336776 
L 244.223592 167.71698 
L 244.858649 232.058325 
L 245.087238 238.35067 
L 245.097043 238.344631 
L 245.119801 238.241631 
L 245.202393 236.828152 
L 245.364525 229.47501 
L 245.64256 204.930189 
L 246.61727 110.592639 
L 246.713011 109.489004 
L 246.763105 109.795199 
L 246.869657 112.449567 
L 247.064157 123.904622 
L 247.406408 159.691366 
L 248.126005 234.243999 
L 248.336186 239.566997 
L 248.343556 239.560182 
L 248.387092 239.248907 
L 248.494423 236.521345 
L 248.689995 224.810084 
L 249.034778 188.261651 
L 249.746908 113.76529 
L 249.959427 108.27333 
L 249.965725 108.278346 
L 250.006729 108.550422 
L 250.110131 111.063061 
L 250.300346 122.13914 
L 250.632825 156.919395 
L 251.382842 235.873464 
L 251.582699 240.782668 
L 251.594777 240.76422 
L 251.648215 240.24677 
L 251.770252 236.43873 
L 251.986343 221.448527 
L 252.388362 174.791206 
L 252.969721 113.945205 
L 253.201005 107.060634 
L 253.209122 107.058987 
L 253.23834 107.190254 
L 253.323919 108.803777 
L 253.490078 116.975023 
L 253.775157 143.940199 
L 254.715129 240.356141 
L 254.829278 241.998338 
L 254.874437 241.737908 
L 254.975535 239.2944 
L 255.162633 228.347524 
L 255.488327 193.816219 
L 256.261102 110.471555 
L 256.452486 105.841987 
L 256.468329 105.874522 
L 256.528812 106.588795 
L 256.660849 111.336267 
L 256.891354 129.106921 
L 257.352363 186.10699 
L 257.849734 236.729361 
L 258.075694 243.214013 
L 258.10501 243.10265 
L 258.186401 241.634623 
L 258.346943 233.91191 
L 258.622282 208.007618 
L 259.61066 105.638628 
L 259.699064 104.626316 
L 259.750781 104.976797 
L 259.859021 107.943011 
L 260.055859 120.603965 
L 260.403694 160.069862 
L 261.106993 238.434012 
L 261.322239 244.429684 
L 261.327272 244.426263 
L 261.364932 244.189366 
L 261.463107 241.832886 
L 261.646245 231.052393 
L 261.963659 196.820723 
L 262.766076 107.631456 
L 262.945512 103.410642 
L 262.96655 103.469789 
L 263.035734 104.489705 
L 263.179783 110.576153 
L 263.428404 132.206353 
L 264.565798 245.644238 
L 264.573558 245.64219 
L 264.598166 245.529172 
L 264.679687 244.003141 
L 264.840391 235.987538 
L 265.116023 209.116236 
L 266.102778 103.264689 
L 266.192123 102.194973 
L 266.243613 102.554748 
L 266.351626 105.608832 
L 266.548172 118.665096 
L 266.895325 159.377269 
L 267.600572 240.687897 
L 267.815266 246.86103 
L 267.820558 246.857145 
L 267.858575 246.605371 
L 267.957432 244.12557 
L 268.141511 232.836758 
L 268.460874 197.049555 
L 269.256083 105.492642 
L 269.438539 100.979297 
L 269.458278 101.033085 
L 269.525319 102.011707 
L 269.666446 107.998837 
L 269.910587 129.530147 
L 270.480388 206.140435 
L 270.883999 243.752814 
L 271.061812 248.076702 
L 271.083531 248.011011 
L 271.153754 246.90833 
L 271.299232 240.405663 
L 271.550092 217.424468 
L 272.674079 99.780251 
L 272.686189 99.763821 
L 272.724595 99.982185 
L 272.819037 102.256119 
L 272.997143 112.956239 
L 273.304493 147.2654 
L 274.145868 245.61726 
L 274.308325 249.292375 
L 274.336408 249.181012 
L 274.416046 247.664418 
L 274.57425 239.554907 
L 274.845661 212.156198 
L 275.85433 99.390677 
L 275.931695 98.547955 
L 275.985361 98.958447 
L 276.095646 102.335601 
L 276.295341 116.56644 
L 276.650221 160.828522 
L 277.334138 243.662634 
L 277.554838 250.508048 
L 277.557306 250.507141 
L 277.58831 250.347518 
L 277.675188 248.445513 
L 277.843132 238.923968 
L 278.131457 207.650532 
L 279.055879 99.470724 
L 279.178144 97.332279 
L 279.220836 97.595806 
L 279.319011 100.177319 
L 279.502182 111.987248 
L 279.819694 149.487319 
L 280.621655 247.088817 
L 280.801384 251.72372 
L 280.822292 251.659832 
L 280.891184 250.554003 
L 281.034876 243.933932 
L 281.282977 220.371623 
L 282.423391 96.116809 
L 282.434592 96.131286 
L 282.451733 96.224493 
L 282.529943 97.735623 
L 282.686231 105.92759 
L 282.954493 133.780092 
L 283.979947 252.261076 
L 284.047995 252.93939 
L 284.102829 252.493917 
L 284.214315 248.88675 
L 284.415666 233.800012 
L 284.774799 186.9186 
L 285.447613 102.200683 
L 285.671138 94.900932 
L 285.672274 94.901137 
L 285.700454 95.028919 
L 285.781748 96.713401 
L 285.942192 105.579423 
L 286.217434 135.330157 
L 287.20617 252.993878 
L 287.294476 254.155065 
L 287.346226 253.752699 
L 287.454433 250.348197 
L 287.651271 235.812383 
L 287.999171 190.496504 
L 288.702211 100.579139 
L 288.917684 93.685259 
L 288.922586 93.688968 
L 288.959045 93.943904 
L 289.055629 96.542038 
L 289.236657 108.570178 
L 289.549819 146.914795 
L 290.368208 250.883489 
L 290.540957 255.37074 
L 290.564819 255.283733 
L 290.638256 253.933869 
L 290.788116 246.251079 
L 291.045924 219.543582 
L 292.129297 92.655525 
L 292.164457 92.469599 
L 292.217473 92.90455 
L 292.327206 96.508515 
L 292.526154 111.747519 
L 292.879249 159.178712 
L 293.567939 249.272019 
L 293.78747 256.586414 
L 293.790489 256.584959 
L 293.822046 256.401505 
L 293.910319 254.266625 
L 294.080146 243.707304 
L 294.371913 209.192934 
L 295.280297 93.880503 
L 295.410775 91.253913 
L 295.45074 91.503165 
L 295.545702 94.071737 
L 295.724522 106.107927 
L 296.033333 144.647515 
L 296.868734 253.568121 
L 297.034016 257.802087 
L 297.060962 257.68786 
L 297.138944 256.081846 
L 297.294941 247.356554 
L 297.562716 217.664447 
L 298.590637 90.735891 
L 298.657354 90.038241 
L 298.712318 90.516661 
L 298.823901 94.383349 
L 299.025414 110.546161 
L 299.385002 160.7708 
L 300.056647 251.190807 
L 300.280529 259.017761 
L 300.281503 259.017593 
L 300.308644 258.891767 
L 300.388249 257.179303 
L 300.546454 248.020683 
L 300.817897 217.075734 
L 301.826242 89.78111 
L 301.903867 88.822567 
L 301.957532 89.285042 
L 302.067753 93.09106 
L 302.267383 109.135195 
L 302.622198 159.049564 
L 303.306277 252.509249 
L 303.527042 260.233435 
L 303.529477 260.232449 
L 303.559216 260.066335 
L 303.644308 258.025711 
L 303.809881 247.652439 
L 304.094052 213.358352 
L 305.038147 89.637493 
L 305.150348 87.606891 
L 305.196124 87.947813 
L 305.297773 91.113944 
L 305.485683 105.241776 
L 305.813227 149.758816 
L 306.579477 255.372879 
L 306.773588 261.449108 
L 306.78823 261.413825 
L 306.846084 260.590513 
L 306.974582 254.925353 
L 307.199989 233.355325 
L 307.637526 165.174869 
L 308.164084 95.144159 
L 308.393582 86.392918 
L 308.399686 86.392588 
L 308.424911 86.521202 
L 308.504419 88.290128 
L 308.662493 97.758367 
L 308.933742 129.763861 
L 309.943093 261.685552 
L 310.020166 262.664781 
L 310.073929 262.184556 
L 310.184214 258.2371 
L 310.383942 241.603983 
L 310.739017 189.860142 
L 311.422382 93.188541 
L 311.643374 85.175543 
L 311.645712 85.17649 
L 311.674931 85.342062 
L 311.759211 87.40642 
L 311.923714 97.977736 
L 312.205968 133.02801 
L 313.159284 261.954451 
L 313.26668 263.880455 
L 313.31382 263.506183 
L 313.416995 260.107449 
L 313.606983 245.101649 
L 313.939104 197.953936 
L 314.690128 90.616344 
L 314.889888 83.959869 
L 314.90203 83.984909 
L 314.954851 84.673104 
L 315.076272 89.773748 
L 315.29155 109.918649 
L 315.691168 172.608112 
L 316.27678 255.760432 
L 316.508161 265.091938 
L 316.514881 265.095605 
L 316.543905 264.93492 
L 316.627082 262.894315 
L 316.790091 252.341131 
L 317.069781 217.197072 
L 318.035823 84.470973 
L 318.136466 82.744196 
L 318.185391 83.155311 
L 318.290515 86.78548 
L 318.483132 102.599529 
L 318.821227 152.125474 
L 319.553258 259.066196 
L 319.759706 266.311804 
L 319.768797 266.297394 
L 319.815027 265.783458 
L 319.926871 261.529391 
L 320.128741 243.778158 
L 320.489335 188.620961 
L 321.158383 90.138913 
L 321.382947 81.528521 
L 321.383596 81.528599 
L 321.409244 81.648784 
L 321.486154 83.37295 
L 321.640755 92.839442 
L 321.906257 125.206472 
L 322.946418 266.904051 
L 323.006317 267.527476 
L 323.061703 266.989373 
L 323.173709 262.664342 
L 323.375806 244.633408 
L 323.736985 188.613023 
L 324.404572 89.062481 
L 324.629493 80.312846 
L 324.62998 80.312895 
L 324.655335 80.430644 
L 324.731596 82.142334 
L 324.88532 91.601392 
L 325.149394 124.03936 
L 326.197379 268.201641 
L 326.252863 268.74315 
L 326.308314 268.196492 
L 326.420385 263.808303 
L 326.622579 245.522117 
L 326.984017 188.711696 
L 327.650923 87.974193 
L 327.876006 79.097172 
L 327.876428 79.097207 
L 327.901556 79.213644 
L 327.977363 80.922746 
L 328.13047 90.410982 
L 328.39357 123.022222 
L 329.447009 269.469978 
L 329.499409 269.958823 
L 329.554827 269.405515 
L 329.666898 264.961661 
L 329.869093 246.441741 
L 330.230531 188.903452 
L 330.897469 86.870985 
L 331.122552 77.881498 
L 331.122941 77.88153 
L 331.147907 77.997789 
L 331.223454 79.714384 
L 331.376204 89.269436 
L 331.63872 122.149692 
L 332.695373 270.713512 
L 332.745922 271.174499 
L 332.801276 270.615861 
L 332.913249 266.124778 
L 333.115314 247.397479 
L 333.476427 189.210015 
L 334.144177 85.754862 
L 334.369097 76.665824 
L 334.369552 76.665869 
L 334.39442 76.783401 
L 334.469935 78.519925 
L 334.622653 88.189836 
L 334.885103 121.468097 
L 335.942081 271.926639 
L 335.992468 272.390172 
L 336.047789 271.824933 
L 336.15973 267.280319 
L 336.361762 248.325852 
L 336.722778 189.434052 
L 337.390723 84.651494 
L 337.615611 75.450149 
L 337.616098 75.450197 
L 337.640836 75.568094 
L 337.716156 77.315788 
L 337.868614 87.066154 
L 338.130643 120.650026 
L 339.189926 273.160728 
L 339.239013 273.605846 
L 339.29427 273.03469 
L 339.406178 268.437945 
L 339.608146 249.262721 
L 339.968999 189.683728 
L 340.637366 83.540189 
L 340.862157 74.234474 
L 340.862676 74.234533 
L 340.887317 74.353374 
L 340.962572 76.11867 
L 341.114933 85.973776 
L 341.376831 119.933807 
L 342.436894 274.378913 
L 342.485527 274.821522 
L 342.540751 274.244479 
L 342.652594 269.597726 
L 342.854497 250.204232 
L 343.215188 189.941166 
L 343.883976 82.431371 
L 344.10867 73.0188 
L 344.109254 73.018868 
L 344.133798 73.13864 
L 344.208956 74.920211 
L 344.361219 84.877921 
L 344.622923 119.200167 
L 345.684024 275.600178 
L 345.732073 276.037196 
L 345.787231 275.454299 
L 345.89901 270.757696 
L 346.100815 251.150528 
L 346.461279 190.219255 
L 347.13062 81.319718 
L 347.355216 71.803125 
L 347.355832 71.803205 
L 347.380279 71.923892 
L 347.455339 73.721614 
L 347.607472 83.778491 
L 347.868981 118.459367 
L 348.931154 276.821564 
L 348.978586 277.252871 
L 349.033745 276.663459 
L 349.145523 271.911682 
L 349.347329 252.072049 
L 349.70776 190.422548 
L 350.377165 80.216094 
L 350.601761 70.587451 
L 350.602378 70.587534 
L 350.626695 70.7085 
L 350.701593 72.517869 
L 350.853499 82.657072 
L 351.114651 117.651113 
L 352.178836 278.053053 
L 352.225132 278.468545 
L 352.280161 277.874733 
L 352.391809 273.080282 
L 352.59342 253.04947 
L 352.953397 190.794698 
L 353.623971 79.090309 
L 353.848275 69.371776 
L 353.849054 69.371901 
L 353.873435 69.496273 
L 353.948625 71.344306 
L 354.100921 81.667452 
L 354.362722 117.248785 
L 355.423304 279.225422 
L 355.471645 279.684221 
L 355.526869 279.079705 
L 355.63868 274.211372 
L 355.84055 253.889322 
L 356.201176 190.738204 
L 356.870127 78.020062 
L 357.09482 68.156101 
L 357.095405 68.156176 
L 357.119429 68.276689 
L 357.193808 70.098235 
L 357.345032 80.361332 
L 357.60508 115.868596 
L 358.675466 280.537749 
L 358.718191 280.899896 
L 358.77283 280.30101 
L 358.884057 275.439774 
L 359.085083 255.078394 
L 359.443566 191.776852 
L 360.117939 76.806211 
L 360.341366 66.940426 
L 360.342535 66.94072 
L 360.367371 67.076718 
L 360.443827 69.045056 
L 360.597843 79.899759 
L 360.862437 117.090846 
L 361.9075 281.457726 
L 361.964704 282.115571 
L 362.020155 281.492284 
L 362.132193 276.48711 
L 362.334356 255.625679 
L 362.695794 190.802461 
L 363.362699 75.859025 
L 363.58788 65.724751 
L 363.588237 65.72478 
L 363.611774 65.840947 
L 363.685049 67.638869 
L 363.834779 77.886436 
L 364.092458 113.533739 
L 365.176317 283.083759 
L 365.211315 283.331242 
L 365.264363 282.752588 
L 365.373967 277.955658 
L 365.572785 257.657362 
L 365.925685 194.462318 
L 366.614764 74.267448 
L 366.834425 64.509076 
L 366.83738 64.510906 
L 366.866696 64.723403 
L 366.951853 67.332425 
L 367.117557 80.58611 
L 367.402019 124.391803 
L 368.344524 281.913417 
L 368.457731 284.546923 
L 368.503215 284.118443 
L 368.604475 280.122098 
L 368.791898 262.242688 
L 369.1185 205.851982 
L 369.887867 70.944042 
L 370.080971 63.293401 
L 370.096068 63.340999 
L 370.154538 64.417273 
L 370.28401 71.755387 
L 370.510879 99.566362 
L 370.955006 187.828523 
L 371.472863 274.774812 
L 371.701614 285.761204 
L 371.706419 285.761569 
L 371.729535 285.628532 
L 371.804952 283.64837 
L 371.957572 272.611543 
L 372.219893 234.613665 
L 373.277488 62.601889 
L 373.327582 62.077729 
L 373.382903 62.722633 
L 373.494811 67.910291 
L 373.696811 89.551629 
L 374.057795 156.798199 
L 374.725804 276.467498 
L 374.950757 286.978274 
L 374.951212 286.978226 
L 374.974392 286.860107 
L 375.047245 285.016748 
L 375.196423 274.463332 
L 375.453225 237.677843 
L 376.542084 61.078265 
L 376.574193 60.862059 
L 376.626397 61.444418 
L 376.735124 66.330846 
L 376.932741 87.124538 
L 377.282686 151.923416 
L 377.979882 278.259729 
L 378.197303 288.193949 
L 378.201296 288.190491 
L 378.233535 287.91336 
L 378.323789 284.793563 
L 378.496342 269.61794 
L 378.793239 220.3383 
L 379.67841 63.952482 
L 379.820576 59.646376 
L 379.85645 59.923006 
L 379.94625 63.02163 
L 380.118187 78.148875 
L 380.413947 127.344057 
L 381.304118 285.227076 
L 381.443849 289.409624 
L 381.4806 289.117717 
L 381.571503 285.909001 
L 381.744934 270.384049 
L 382.043486 220.072331 
L 382.921417 62.999848 
L 383.067122 58.430701 
L 383.101697 58.690556 
L 383.189841 61.684521 
L 383.359571 76.504611 
L 383.651273 124.966997 
L 384.559721 286.926573 
L 384.690395 290.625299 
L 384.730327 290.276953 
L 384.825126 286.686438 
L 385.003816 269.839257 
L 385.312465 215.869251 
L 386.148321 63.149089 
L 386.313635 57.215026 
L 386.340581 57.374374 
L 386.418369 59.612053 
L 386.574203 71.791056 
L 386.841783 113.266402 
L 387.870484 290.871343 
L 387.936973 291.840972 
L 387.991969 291.173073 
L 388.103521 285.775015 
L 388.305034 263.205849 
L 388.664784 193.053727 
L 389.335909 66.953864 
L 389.560181 55.999351 
L 389.56096 55.999496 
L 389.584075 56.126076 
L 389.65735 58.085467 
L 389.807081 69.25167 
L 390.064759 108.090853 
L 391.148456 292.784736 
L 391.183551 293.056646 
L 391.236665 292.426178 
L 391.3463 287.19905 
L 391.545151 265.085069 
L 391.898181 196.232456 
L 392.586903 65.422059 
L 392.806727 54.783676 
L 392.809584 54.785552 
L 392.838153 55.005097 
L 392.922174 57.755344 
L 393.086384 71.869571 
L 393.368217 118.714834 
L 394.323415 291.729964 
L 394.43 294.272324 
L 394.477367 293.767269 
L 394.580704 289.197703 
L 394.770952 269.047449 
L 395.103788 205.742123 
L 395.852376 62.565439 
L 396.05324 53.568 
L 396.064863 53.598605 
L 396.116255 54.464735 
L 396.235761 61.021822 
L 396.448377 87.19193 
L 396.839618 168.511341 
L 397.440814 283.096849 
L 397.671838 295.483078 
L 397.677552 295.487746 
L 397.705634 295.295183 
L 397.786473 292.750795 
L 397.946398 279.307763 
L 398.220861 234.121126 
L 398.487273 174.231719 
L 398.487273 174.231719 
" style="fill:none;stroke:#1f77b4;stroke-linecap:square;stroke-width:1.5;"/>
   </g>
   <g id="patch_3">
    <path d="M 57.6 307.584 
L 57.6 41.472 
" style="fill:none;stroke:#000000;stroke-linecap:square;stroke-linejoin:miter;stroke-width:0.8;"/>
   </g>
   <g id="patch_4">
    <path d="M 414.72 307.584 
L 414.72 41.472 
" style="fill:none;stroke:#000000;stroke-linecap:square;stroke-linejoin:miter;stroke-width:0.8;"/>
   </g>
   <g id="patch_5">
    <path d="M 57.6 307.584 
L 414.72 307.584 
" style="fill:none;stroke:#000000;stroke-linecap:square;stroke-linejoin:miter;stroke-width:0.8;"/>
   </g>
   <g id="patch_6">
    <path d="M 57.6 41.472 
L 414.72 41.472 
" style="fill:none;stroke:#000000;stroke-linecap:square;stroke-linejoin:miter;stroke-width:0.8;"/>
   </g>
  </g>
 </g>
 <defs>
  <clipPath id="pedba0cba3d">
   <rect height="266.112" width="357.12" x="57.6" y="41.472"/>
  </clipPath>
 </defs>
</svg>
